<?xml version="1.0" standalone="no"?>
<!DOCTYPE svg PUBLIC "-//W3C//DTD SVG 20010904//EN"
 "http://www.w3.org/TR/2001/REC-SVG-20010904/DTD/svg10.dtd">
<svg version="1.0" xmlns="http://www.w3.org/2000/svg"
 width="1635.000000pt" height="1635.000000pt" viewBox="0 0 1635.000000 1635.000000"
 preserveAspectRatio="xMidYMid meet">
<metadata>
Created by potrace 1.11, written by Peter Selinger 2001-2013
</metadata>
<g transform="translate(0.000000,1635.000000) scale(0.100000,-0.100000)"
fill="#000000" stroke="none">
<path d="M7516 10549 c3 -6 12 -8 20 -5 7 3 16 1 20 -5 4 -7 -15 -10 -53 -8
-106 3 -133 0 -127 -14 6 -18 -37 -17 -55 1 -13 12 -16 12 -26 -2 -7 -9 -21
-16 -32 -16 -10 0 -25 -6 -32 -12 -10 -9 -12 -9 -7 -1 4 8 -3 11 -24 11 -16
-1 -30 -5 -30 -10 0 -5 4 -7 8 -4 4 2 14 1 22 -4 16 -10 18 -9 -62 -10 -28 -1
-36 -4 -31 -15 4 -12 -5 -15 -41 -15 -25 0 -46 -4 -46 -10 0 -5 8 -7 18 -3 9
3 14 3 10 -1 -6 -7 -30 -14 -56 -15 -6 -1 -11 -6 -10 -13 3 -13 -3 -15 -53
-17 -23 -1 -30 -5 -25 -16 4 -10 -1 -15 -14 -15 -11 0 -20 -7 -20 -15 0 -9 -9
-15 -25 -15 -13 0 -28 -6 -32 -14 -4 -8 -19 -16 -33 -18 -14 -2 -24 -9 -22
-16 2 -11 -10 -16 -33 -13 -5 1 -1 -6 10 -15 16 -14 17 -16 3 -11 -17 6 -23
-3 -19 -26 1 -5 -3 -6 -9 -2 -6 3 -7 11 -4 17 4 7 2 8 -4 4 -7 -4 -12 -18 -12
-32 0 -15 -6 -24 -15 -24 -8 0 -15 -7 -15 -15 0 -8 -7 -15 -15 -15 -13 0 -21
-25 -16 -52 0 -5 -5 -7 -12 -5 -7 1 -13 -11 -15 -30 -2 -21 -9 -33 -18 -33 -8
0 -14 -9 -14 -20 0 -14 -5 -18 -17 -13 -15 5 -14 3 2 -10 18 -15 18 -16 3 -17
-14 0 -18 -9 -19 -40 -1 -22 -3 -44 -4 -50 -1 -5 -3 -14 -4 -20 0 -5 -7 -10
-13 -10 -10 0 -12 -23 -10 -90 3 -77 1 -90 -12 -90 -19 0 -18 35 -16 -420 1
-413 0 -383 15 -370 9 8 13 -6 14 -56 1 -51 -1 -64 -11 -58 -10 6 -11 5 -1 -7
7 -9 13 -39 14 -68 1 -28 6 -54 10 -56 4 -3 6 6 4 20 -1 14 1 27 5 30 4 2 7
-1 7 -8 1 -7 2 -35 4 -64 1 -31 7 -51 13 -50 6 1 12 -13 14 -30 2 -23 8 -33
20 -33 13 0 13 -2 -4 -14 -19 -14 -19 -14 1 -13 12 1 19 -3 17 -11 -1 -7 5
-15 13 -18 9 -4 15 -19 15 -35 0 -19 5 -29 15 -29 8 0 15 -7 15 -15 0 -8 7
-15 15 -15 8 0 15 -7 15 -15 0 -10 7 -15 18 -13 11 2 16 -3 14 -14 -2 -12 4
-18 17 -18 14 0 19 -5 15 -15 -4 -9 0 -15 10 -15 9 0 16 -7 16 -15 0 -8 7 -15
15 -15 8 0 15 -8 15 -17 1 -16 2 -16 17 2 13 16 15 17 10 3 -4 -12 -1 -18 9
-18 8 0 17 -7 20 -15 4 -8 12 -15 19 -15 8 0 16 -8 18 -17 4 -17 5 -17 6 0 0
9 6 17 11 17 6 0 9 -5 8 -11 -2 -6 11 -16 27 -22 17 -5 33 -14 36 -18 3 -5 17
-10 31 -11 15 -1 24 -6 22 -10 -3 -5 -11 -5 -17 -2 -7 4 -8 3 -4 -1 9 -11 31
-15 75 -16 17 -1 32 -5 32 -11 0 -5 -4 -6 -10 -3 -5 3 -10 1 -10 -5 0 -6 6
-10 13 -9 40 5 77 -2 77 -15 0 -14 8 -16 114 -18 19 0 24 -3 15 -8 -7 -5 -16
-7 -20 -4 -4 2 -10 1 -13 -4 -2 -4 6 -9 19 -10 13 -1 27 3 30 8 3 6 14 10 23
9 14 0 13 -2 -3 -9 -16 -7 -14 -9 15 -9 61 -2 71 -4 66 -16 -2 -6 2 -12 9 -12
7 0 11 5 9 11 -3 7 19 11 61 12 52 1 65 -2 61 -12 -6 -17 -41 -15 384 -18 190
-1 353 2 363 7 10 4 14 13 11 19 -4 7 -3 8 5 4 6 -4 9 -11 7 -15 -3 -4 1 -8 8
-8 8 0 12 6 10 12 -3 6 2 12 10 12 8 0 13 -4 11 -8 -3 -4 2 -9 10 -12 9 -4 12
-1 8 9 -7 19 7 18 24 -3 12 -15 14 -15 10 -2 -7 21 43 20 61 -1 10 -13 11 -13
6 3 -6 18 -7 18 113 20 23 0 40 4 37 8 -7 12 13 20 56 21 27 0 40 5 40 14 0 9
12 14 34 14 43 0 68 9 60 22 -4 6 7 8 27 6 24 -2 34 1 34 11 0 13 12 18 63 23
14 1 21 7 18 15 -3 8 2 13 14 13 11 0 20 5 20 10 0 6 5 10 11 10 5 0 7 -4 4
-10 -3 -5 -1 -10 4 -10 6 0 11 7 11 15 0 8 7 16 15 16 29 3 33 4 42 13 4 5 3
6 -4 2 -6 -3 -15 -2 -18 4 -4 6 -3 10 2 9 27 -5 53 3 53 16 0 8 7 15 15 15 8
0 15 7 15 15 0 8 9 15 20 15 13 0 18 5 14 15 -6 14 10 20 44 16 10 -2 17 25
13 52 -2 12 17 8 22 -5 3 -7 6 0 6 15 1 16 5 26 11 22 6 -3 15 6 20 20 6 16
14 23 22 19 8 -5 9 -2 5 9 -3 10 -2 17 4 17 6 0 7 5 4 10 -3 6 1 13 9 16 10 4
16 18 16 35 0 19 5 29 15 29 10 0 15 10 15 30 0 20 5 30 15 30 11 0 15 12 15
51 0 38 3 50 13 46 8 -3 13 4 13 19 0 13 -4 24 -9 24 -5 0 -6 -7 -3 -16 3 -8
2 -13 -3 -10 -4 3 -8 25 -7 48 1 30 6 43 16 43 10 0 14 8 12 24 -3 17 0 21 10
15 11 -6 11 -5 0 8 -14 17 -14 108 0 108 4 0 8 5 8 11 0 5 -5 7 -10 4 -6 -4
-10 6 -8 25 2 22 6 29 18 25 13 -4 13 -3 -1 7 -12 10 -16 32 -16 91 0 42 4 77
9 77 4 0 8 5 8 11 0 5 -4 8 -9 5 -5 -4 -9 20 -9 53 1 50 3 58 17 54 14 -4 14
-3 1 6 -16 11 -23 111 -8 111 4 0 8 5 8 11 0 5 -4 7 -10 4 -6 -4 -10 10 -10
34 0 34 3 39 18 35 15 -5 15 -4 1 5 -13 9 -17 30 -18 106 -4 190 -5 224 -12
220 -3 -3 -15 5 -25 17 -11 12 -13 18 -6 14 9 -5 12 3 12 28 0 25 -4 36 -15
36 -14 0 -20 18 -15 49 1 11 -1 12 -12 4 -10 -9 -13 -5 -15 20 -1 17 -7 35
-13 41 -8 8 -9 5 -5 -9 5 -15 4 -17 -3 -6 -6 8 -9 23 -7 33 2 10 0 18 -5 18
-5 0 -6 7 -3 17 4 11 3 14 -6 9 -8 -5 -14 -1 -18 13 -3 12 -12 21 -19 21 -8 0
-14 7 -14 15 0 8 -7 15 -15 15 -10 0 -15 10 -15 30 0 23 -4 30 -20 30 -13 0
-18 5 -14 15 6 14 -12 21 -40 16 -5 -1 -3 5 4 14 12 14 12 16 -1 15 -31 -5
-49 1 -49 15 0 8 -9 15 -20 15 -13 0 -18 5 -14 15 5 11 -1 15 -22 16 -16 1
-33 1 -38 0 -5 -1 -4 5 4 13 11 14 8 16 -18 16 -17 0 -32 4 -34 9 -1 5 -10 11
-18 13 -8 2 -21 12 -28 23 -10 16 -12 16 -8 3 3 -10 1 -18 -4 -18 -6 0 -10 7
-10 15 0 9 -9 15 -25 15 -13 0 -28 7 -32 15 -5 9 -27 16 -55 17 -25 2 -44 6
-41 11 2 4 9 5 14 2 5 -4 9 -1 9 4 0 7 -26 11 -65 11 -36 0 -65 4 -65 10 0 5
8 7 18 3 9 -3 14 -3 10 1 -3 4 -25 9 -47 11 -30 2 -41 -1 -44 -13 -4 -15 -5
-15 -6 1 -1 14 -11 17 -58 18 -80 2 -82 2 -94 19 -10 13 -10 13 -6 -1 3 -9 -1
-16 -8 -16 -8 0 -13 5 -12 11 1 8 -135 12 -461 13 -303 1 -460 -2 -456 -8z
m-201 -39 c3 -5 1 -10 -4 -10 -6 0 -11 5 -11 10 0 6 2 10 4 10 3 0 8 -4 11
-10z m1349 -1 c3 -3 -4 -5 -14 -6 -11 -1 -20 2 -20 7 0 8 25 8 34 -1z m106
-23 c0 -3 -4 -8 -10 -11 -5 -3 -10 -1 -10 4 0 6 5 11 10 11 6 0 10 -2 10 -4z
m-1990 -216 c0 -5 -2 -10 -4 -10 -3 0 -8 5 -11 10 -3 6 -1 10 4 10 6 0 11 -4
11 -10z m1340 -141 c13 -9 12 -10 -3 -5 -10 3 -16 2 -12 -3 3 -5 22 -9 43 -9
135 1 162 -2 162 -17 0 -9 9 -14 24 -13 16 2 22 7 19 18 -4 13 -3 13 9 -1 13
-16 19 -19 38 -19 6 0 11 -8 11 -17 1 -17 2 -17 6 0 5 21 29 23 37 2 3 -9 18
-15 37 -15 24 0 30 -3 25 -16 -4 -10 -2 -14 6 -11 7 2 12 10 10 16 -1 7 2 10
8 6 6 -3 8 -11 5 -16 -4 -5 3 -9 15 -9 11 0 23 -7 26 -15 4 -8 10 -12 15 -10
4 3 17 -3 29 -15 11 -11 25 -20 30 -20 6 0 10 -7 10 -15 0 -8 7 -15 15 -15 8
0 15 -7 15 -15 0 -8 7 -15 15 -15 8 0 15 -7 15 -15 0 -8 7 -15 15 -15 8 0 15
-5 15 -11 0 -5 -5 -7 -12 -3 -7 4 -8 3 -4 -4 4 -7 16 -12 27 -12 14 0 19 -7
19 -30 0 -18 5 -30 13 -30 14 0 20 -24 20 -82 0 -21 4 -38 8 -38 4 0 6 8 4 18
-2 10 1 25 6 33 6 10 8 7 7 -11 -3 -83 3 -141 15 -134 9 6 9 5 0 -7 -13 -16
-17 -203 -4 -195 4 3 8 -1 8 -9 0 -8 -4 -12 -9 -9 -4 3 -8 -2 -8 -11 0 -10 5
-14 13 -9 10 6 10 4 0 -7 -15 -15 -19 -204 -5 -195 5 3 9 -1 9 -9 0 -8 -4 -12
-9 -9 -4 3 -8 -2 -8 -11 0 -10 5 -13 13 -9 9 6 9 5 0 -7 -7 -9 -12 -49 -12
-102 0 -61 4 -87 12 -87 8 0 8 -3 -2 -9 -7 -5 -14 -25 -14 -45 -1 -22 -6 -36
-14 -36 -11 0 -19 -35 -14 -63 1 -5 -3 -6 -9 -2 -6 3 -8 11 -5 16 4 5 1 9 -5
9 -6 0 -10 -6 -9 -12 4 -31 -2 -48 -16 -48 -8 0 -15 -5 -15 -11 0 -6 8 -8 18
-5 16 6 16 5 0 -8 -10 -7 -18 -18 -18 -25 0 -6 -7 -11 -16 -11 -10 0 -14 -6
-10 -15 4 -10 -1 -15 -14 -15 -11 0 -20 -7 -20 -15 0 -8 -7 -15 -15 -15 -8 0
-15 -7 -15 -15 0 -8 -6 -15 -14 -15 -8 0 -16 -5 -18 -12 -2 -6 -15 -13 -28
-15 -31 -5 -38 -12 -20 -23 17 -11 9 -13 -14 -4 -9 3 -13 11 -9 17 3 6 1 7 -6
3 -6 -4 -9 -12 -6 -17 4 -5 -3 -9 -15 -9 -12 0 -19 -4 -16 -9 8 -12 -18 -21
-60 -21 -24 0 -34 -5 -34 -15 0 -14 -29 -20 -80 -17 -12 0 -11 -2 3 -13 17
-12 16 -13 -8 -11 -14 0 -23 6 -21 12 2 6 -2 11 -9 11 -7 0 -11 -6 -8 -14 7
-19 -7 -16 -24 5 -13 15 -14 15 -9 0 4 -13 -3 -17 -32 -20 -24 -2 -36 -8 -34
-16 1 -8 -2 -11 -8 -7 -6 3 -8 11 -5 16 7 10 -41 7 -68 -5 -10 -5 -23 -3 -33
4 -11 10 -18 10 -26 2 -7 -7 -19 -12 -28 -11 -10 0 -9 3 5 9 14 6 6 8 -27 7
-36 -1 -48 -5 -49 -17 -1 -13 -2 -13 -6 1 -6 22 -73 22 -74 0 0 -14 -1 -14 -7
-1 -10 22 -72 23 -73 2 0 -14 -1 -15 -7 -2 -9 20 -72 27 -72 8 -1 -8 -4 -7
-11 4 -6 11 -16 15 -26 11 -10 -4 -14 -2 -9 5 3 6 2 14 -4 17 -6 4 -10 3 -9
-2 4 -22 -2 -25 -16 -7 -10 13 -13 14 -10 3 4 -10 0 -16 -10 -16 -9 0 -14 6
-11 14 3 7 2 12 -2 12 -4 -1 -26 -1 -49 0 -31 1 -43 5 -43 16 0 10 -11 15 -37
16 -21 1 -42 1 -46 0 -5 -1 -6 3 -2 9 3 6 12 7 18 4 7 -4 9 -3 5 1 -7 7 -37
14 -76 17 -7 1 -11 7 -8 15 3 8 -2 13 -14 13 -12 0 -20 7 -20 16 0 10 -6 14
-15 11 -8 -4 -17 -2 -20 4 -4 5 -11 7 -16 4 -5 -4 -9 1 -9 9 0 9 -7 16 -15 16
-8 0 -15 7 -15 15 0 8 -7 15 -15 15 -10 0 -15 10 -15 31 0 24 -4 30 -15 25
-13 -5 -20 5 -16 27 0 4 -6 7 -14 7 -10 0 -15 10 -15 26 0 15 -8 33 -17 39
-13 10 -17 26 -16 64 1 38 -2 51 -13 51 -12 0 -14 57 -12 378 3 311 5 376 17
374 10 -2 12 8 9 43 -2 25 1 45 5 45 5 0 6 4 2 9 -3 5 0 13 6 17 7 4 9 3 5 -4
-3 -6 -2 -14 4 -17 6 -4 10 -3 9 2 -1 4 -1 25 0 47 1 29 4 37 16 32 10 -4 15
1 15 14 0 10 8 24 18 30 16 11 16 11 0 6 -10 -3 -18 -1 -18 4 0 6 6 10 14 10
8 0 17 7 20 16 3 8 10 12 16 9 6 -3 10 4 10 16 0 18 2 20 16 9 8 -8 14 -9 13
-4 -5 28 3 44 22 44 14 0 19 5 16 14 -4 10 2 13 24 12 22 -2 29 2 29 16 0 13
8 18 30 18 20 0 30 5 30 15 0 14 37 21 80 15 11 -1 10 2 -4 13 -17 12 -14 14
28 13 36 -1 45 2 41 13 -5 12 -3 12 12 0 15 -12 16 -12 10 6 -6 17 -5 18 6 5
14 -18 37 -24 37 -11 0 5 -6 11 -12 14 -7 2 -2 4 12 4 77 -1 157 7 169 17 11
8 13 8 7 -1 -5 -9 0 -13 13 -13 12 0 20 3 20 8 -1 4 -1 10 0 15 2 11 244 8
261 -4z m1345 -344 c1 -19 -1 -32 -4 -29 -3 3 -6 21 -8 41 -1 19 1 32 5 28 4
-3 7 -22 7 -40z m2 -60 c0 -8 -4 -12 -9 -9 -4 3 -8 9 -8 15 0 5 4 9 8 9 5 0 9
-7 9 -15z m-593 -235 c-6 -6 -10 -3 -10 10 0 13 4 16 10 10 7 -7 7 -13 0 -20z
m-3 -203 c-10 -9 -11 -8 -5 6 3 10 9 15 12 12 3 -3 0 -11 -7 -18z m0 -80 c-10
-9 -11 -8 -5 6 3 10 9 15 12 12 3 -3 0 -11 -7 -18z m3 -197 c-6 -6 -10 -3 -10
10 0 13 4 16 10 10 7 -7 7 -13 0 -20z m-2244 -560 c0 -5 -5 -10 -11 -10 -5 0
-7 5 -4 10 3 6 8 10 11 10 2 0 4 -4 4 -10z m30 -60 c0 -5 -5 -10 -11 -10 -5 0
-7 5 -4 10 3 6 8 10 11 10 2 0 4 -4 4 -10z m1110 -10 c0 -5 -4 -10 -10 -10 -5
0 -10 5 -10 10 0 6 5 10 10 10 6 0 10 -4 10 -10z m475 0 c3 -6 -1 -7 -9 -4
-18 7 -21 14 -7 14 6 0 13 -4 16 -10z m365 -380 c8 -5 11 -10 5 -10 -5 0 -17
5 -25 10 -8 5 -10 10 -5 10 6 0 17 -5 25 -10z"/>
<path d="M8823 8835 c0 -8 4 -15 9 -15 4 0 8 4 8 9 0 6 -4 12 -8 15 -5 3 -9
-1 -9 -9z"/>
<path d="M8615 8540 c3 -5 8 -10 11 -10 2 0 4 5 4 10 0 6 -5 10 -11 10 -5 0
-7 -4 -4 -10z"/>
<path d="M8108 8393 c7 -3 16 -2 19 1 4 3 -2 6 -13 5 -11 0 -14 -3 -6 -6z"/>
<path d="M8556 10552 c-3 -5 1 -9 9 -9 8 0 12 4 9 9 -3 4 -7 8 -9 8 -2 0 -6
-4 -9 -8z"/>
<path d="M11036 10546 c4 -10 -11 -14 -63 -15 -152 -5 -167 -7 -171 -19 -2 -6
-17 -12 -33 -12 -21 0 -28 -4 -23 -12 6 -10 4 -10 -7 0 -18 16 -29 15 -29 -3
0 -10 -10 -15 -30 -15 -16 0 -30 -5 -30 -11 0 -8 -6 -7 -17 2 -15 12 -16 12
-10 -4 5 -14 1 -17 -21 -16 -34 1 -59 -5 -69 -16 -4 -4 -3 -5 4 -1 6 3 14 2
18 -4 6 -10 -18 -14 -64 -10 -15 1 -21 -2 -16 -9 3 -6 12 -8 18 -5 7 4 8 3 4
-1 -9 -11 -34 -17 -64 -17 -13 0 -23 -4 -23 -10 0 -5 4 -7 9 -3 5 3 13 1 16
-5 4 -6 3 -10 -2 -9 -28 5 -53 -3 -53 -17 0 -10 -6 -14 -15 -10 -9 3 -15 0
-15 -10 0 -8 -13 -17 -30 -20 -16 -4 -30 -13 -30 -20 0 -8 -7 -14 -15 -14 -8
0 -15 -7 -15 -15 0 -8 -7 -15 -15 -15 -8 0 -15 -7 -15 -15 0 -8 -7 -15 -15
-15 -8 0 -15 -6 -15 -14 0 -7 -8 -16 -19 -19 -14 -3 -17 -11 -13 -32 3 -20 2
-26 -7 -20 -8 4 -14 -1 -18 -14 -3 -12 -12 -21 -19 -21 -9 0 -14 -11 -14 -30
0 -22 -5 -30 -18 -30 -15 0 -18 -6 -14 -30 3 -23 0 -30 -12 -30 -13 0 -16 -11
-16 -51 0 -39 -3 -50 -14 -46 -10 4 -13 -7 -12 -54 1 -54 -3 -64 -27 -60 -5 1
-6 -3 -2 -9 3 -6 11 -8 16 -5 5 4 9 1 9 -4 0 -6 -7 -11 -15 -11 -8 0 -15 -5
-15 -11 0 -5 4 -8 9 -4 5 3 13 1 16 -5 4 -6 1 -9 -7 -8 -8 2 -13 -7 -14 -24
-1 -16 2 -28 6 -28 5 0 11 -7 14 -16 5 -14 4 -15 -9 -4 -12 10 -15 10 -15 -4
0 -9 4 -16 9 -16 5 0 12 -7 15 -16 5 -13 3 -14 -7 -6 -10 8 -13 6 -14 -9 -1
-11 2 -17 6 -15 4 3 8 -1 8 -9 0 -8 -4 -12 -9 -9 -4 3 -8 0 -8 -5 0 -6 7 -11
15 -11 8 0 15 -4 15 -10 0 -5 -7 -7 -15 -4 -8 4 -15 2 -15 -4 0 -5 7 -12 15
-16 8 -3 15 -11 14 -18 0 -10 -2 -10 -6 0 -11 29 -20 8 -19 -48 0 -33 4 -60 7
-60 4 0 10 -7 13 -16 5 -14 4 -15 -9 -4 -12 10 -15 10 -15 -4 0 -9 4 -16 9
-16 5 0 12 -7 15 -16 5 -13 4 -14 -7 -6 -10 9 -14 8 -14 -3 0 -8 4 -15 8 -15
4 0 10 -7 13 -16 5 -14 4 -15 -9 -4 -12 10 -15 10 -15 -4 0 -9 5 -16 12 -16 9
0 9 -3 0 -12 -16 -16 -15 -28 3 -28 8 0 15 -4 15 -10 0 -5 -7 -7 -15 -4 -8 4
-15 2 -15 -4 0 -5 7 -12 15 -16 8 -3 15 -11 14 -18 0 -10 -2 -10 -6 0 -11 29
-20 8 -19 -48 0 -33 4 -60 7 -60 4 0 10 -7 13 -16 5 -14 4 -15 -9 -4 -12 10
-15 10 -15 -4 0 -9 4 -16 9 -16 5 0 12 -7 15 -16 5 -13 4 -14 -7 -6 -11 10
-14 5 -14 -23 0 -19 5 -35 11 -35 6 0 5 -5 -2 -12 -16 -16 -15 -28 3 -28 8 0
15 -4 15 -10 0 -5 -6 -7 -13 -4 -9 3 -13 -7 -14 -36 0 -22 4 -40 9 -40 5 0 6
6 2 13 -5 9 -4 9 6 0 8 -7 12 -34 11 -72 -1 -48 2 -61 14 -61 11 0 15 -12 15
-50 0 -28 3 -49 8 -49 19 3 25 -2 12 -11 -11 -7 -11 -10 -2 -10 7 0 10 -5 7
-11 -4 -6 2 -13 14 -16 11 -3 18 -9 15 -14 -3 -5 -10 -6 -16 -3 -7 4 -8 2 -4
-5 4 -6 12 -9 17 -6 5 4 9 -6 9 -20 0 -20 4 -26 15 -21 8 3 15 1 15 -4 0 -5
-8 -11 -17 -13 -17 -4 -17 -5 0 -6 15 -1 23 -25 18 -54 -1 -5 2 -6 6 -4 16 10
53 -13 53 -32 0 -11 4 -23 10 -26 6 -3 7 1 4 9 -3 9 -2 16 3 16 5 0 10 -12 11
-26 3 -35 10 -44 29 -37 11 4 14 3 9 -5 -4 -7 -3 -12 3 -12 5 0 11 3 14 8 2 4
3 2 1 -3 -1 -6 5 -20 13 -30 13 -17 15 -17 10 -2 -4 9 -2 17 3 17 6 0 11 -7
11 -15 1 -8 2 -21 3 -27 0 -7 8 -13 16 -13 8 -1 14 -7 12 -15 -3 -11 0 -11 12
-1 11 9 16 9 22 0 5 -8 3 -10 -7 -4 -10 6 -11 5 -3 -4 6 -7 20 -13 32 -14 17
-1 19 -4 10 -15 -9 -11 -9 -13 3 -12 37 6 58 0 53 -15 -6 -14 11 -18 88 -18
10 0 15 -3 13 -8 -3 -4 -14 -6 -25 -4 -11 2 -22 0 -25 -4 -2 -5 10 -7 27 -6
36 3 69 -6 71 -20 2 -11 7 -12 55 -14 20 -1 31 -6 30 -13 -2 -9 13 -14 47 -15
31 -2 54 -8 61 -18 15 -20 28 -19 20 3 -5 15 -5 15 6 1 15 -18 50 -21 60 -5 5
8 8 7 8 -1 0 -7 9 -13 19 -13 10 0 21 -7 25 -15 3 -8 11 -15 18 -14 10 0 10 2
1 6 -20 7 -15 19 7 19 11 0 19 -5 16 -11 -2 -7 2 -12 9 -12 7 0 11 6 8 14 -3
7 -1 13 5 13 5 0 12 -7 16 -15 3 -8 11 -15 18 -14 10 0 10 2 1 6 -23 9 -14 18
18 18 25 1 28 -1 15 -10 -13 -10 -9 -12 22 -14 93 -6 742 -5 742 1 0 3 10 4
22 0 16 -4 20 -2 16 10 -8 21 42 19 60 -2 11 -13 11 -13 7 1 -4 10 0 16 10 16
9 0 14 -5 12 -12 -3 -6 4 -11 14 -11 21 0 26 12 7 18 -7 3 10 5 37 6 27 1 54
7 59 12 6 6 17 10 26 9 10 0 9 -3 -5 -9 -15 -6 -9 -8 22 -7 22 1 39 5 36 10
-2 4 -8 5 -13 2 -5 -3 -11 -2 -14 3 -5 8 18 11 87 12 26 0 37 5 37 15 0 11 12
15 45 15 33 0 45 4 45 15 0 10 9 14 25 13 14 -1 25 -7 25 -13 0 -5 4 -4 8 2 4
7 18 14 30 16 12 2 24 6 28 10 4 3 -3 4 -15 2 -12 -2 -19 0 -16 6 4 5 19 9 36
9 19 0 29 5 29 15 0 10 10 15 30 15 20 0 30 5 30 15 0 10 10 15 30 15 23 0 30
5 30 19 0 14 6 18 25 16 14 -2 27 1 31 6 3 5 -1 9 -8 10 -7 1 -2 4 12 8 14 4
25 13 25 21 0 9 8 14 20 12 17 -3 17 -2 5 15 -8 10 -11 15 -6 11 12 -10 46 10
46 27 0 8 5 14 12 13 6 -2 15 8 19 22 4 14 7 19 8 12 1 -7 6 -10 11 -7 6 4 8
11 5 16 -4 5 -2 9 3 9 6 0 9 8 8 18 0 9 5 16 12 14 6 -1 12 5 12 13 0 8 7 15
15 15 14 0 20 17 16 48 -1 6 5 12 14 12 9 0 15 9 15 25 0 14 4 25 9 25 5 0 12
7 15 16 5 13 4 14 -7 6 -10 -9 -14 -8 -14 3 0 8 6 15 12 15 7 0 13 17 14 38 1
20 3 46 5 57 3 11 5 22 5 25 1 3 6 -2 11 -10 7 -10 10 177 10 547 -1 405 -4
564 -12 569 -6 4 -8 3 -4 -4 3 -6 3 -13 -2 -16 -5 -3 -10 20 -11 51 -2 60 -7
76 -20 69 -8 -6 -10 7 -11 71 -1 28 -5 42 -13 40 -6 -1 -13 8 -15 20 -2 14 -8
20 -18 16 -13 -5 -20 21 -15 51 1 5 -6 6 -15 2 -11 -4 -15 -2 -11 6 6 18 -11
61 -21 54 -5 -3 -18 1 -28 9 -19 15 -18 15 1 9 18 -5 18 -4 -2 8 -12 7 -22 18
-22 23 -1 6 -7 10 -13 10 -7 0 -13 6 -13 13 0 6 -4 11 -9 10 -5 -2 -13 7 -17
20 -5 13 -13 21 -17 18 -5 -3 -18 2 -28 10 -10 9 -14 13 -7 10 6 -4 15 -2 18
4 4 6 3 10 -2 9 -27 -5 -53 3 -53 16 0 8 -6 15 -14 15 -8 0 -16 7 -20 15 -3 9
-18 15 -37 15 -24 0 -30 4 -25 15 4 12 -4 15 -39 15 -31 0 -44 4 -42 13 1 7
-11 13 -28 15 -16 2 -34 10 -40 18 -5 8 -27 15 -47 16 -28 1 -35 4 -28 13 7 8
5 12 -5 12 -8 0 -15 -4 -15 -9 0 -4 -5 -8 -11 -8 -5 0 -7 5 -4 10 3 6 1 10 -4
10 -6 0 -11 -6 -11 -12 0 -8 -5 -6 -10 4 -6 10 -19 15 -31 13 -12 -2 -27 2
-34 9 -8 7 -42 14 -82 15 -37 2 -84 4 -103 5 -22 0 -34 6 -32 14 2 10 -93 12
-467 12 -387 -1 -469 -3 -465 -14z m-151 -36 c3 -5 1 -10 -4 -10 -6 0 -11 5
-11 10 0 6 2 10 4 10 3 0 8 -4 11 -10z m1289 -1 c3 -3 -6 -5 -19 -5 -14 0 -25
4 -25 8 0 8 36 6 44 -3z m536 -239 c0 -5 -5 -10 -11 -10 -5 0 -7 5 -4 10 3 6
8 10 11 10 2 0 4 -4 4 -10z m120 -120 c0 -5 -5 -10 -11 -10 -5 0 -7 5 -4 10 3
6 8 10 11 10 2 0 4 -4 4 -10z m-1204 -21 c4 -8 3 -9 -4 -5 -7 4 -12 3 -12 -3
0 -6 40 -10 100 -10 98 0 125 -5 116 -20 -3 -3 23 -8 57 -9 130 -6 132 -7 95
-22 -20 -8 -18 -9 14 -9 37 -1 58 -15 36 -24 -7 -3 4 -6 25 -6 20 -1 37 -6 37
-11 0 -6 12 -15 28 -20 53 -20 73 -34 67 -48 -3 -10 0 -12 10 -8 14 5 19 -5
16 -29 -1 -5 6 -1 15 10 11 14 15 16 14 5 -4 -27 0 -40 11 -40 5 0 7 5 3 12
-4 7 -3 8 5 4 6 -4 9 -12 6 -17 -4 -5 -2 -9 4 -9 6 0 7 -7 4 -17 -4 -10 -2
-14 5 -9 15 9 25 -11 24 -46 -1 -28 0 -29 14 -12 8 11 14 15 13 9 -5 -39 3
-75 16 -75 11 0 15 -11 15 -39 0 -51 10 -78 21 -59 4 7 8 -151 9 -351 0 -302
-2 -362 -13 -358 -10 4 -14 -7 -16 -40 -1 -30 -7 -51 -19 -60 -16 -14 -16 -14
3 -9 19 6 19 5 3 -8 -10 -7 -18 -25 -18 -39 0 -14 -7 -28 -16 -31 -11 -4 -15
-14 -12 -31 4 -19 1 -25 -13 -25 -11 0 -19 -7 -19 -15 0 -8 -6 -15 -14 -15 -9
0 -16 -12 -18 -27 -2 -22 -9 -29 -30 -31 -16 -2 -28 -9 -28 -18 0 -8 -9 -14
-20 -14 -13 0 -18 -5 -14 -15 4 -11 0 -15 -16 -15 -17 0 -21 -4 -16 -17 5 -15
4 -15 -9 1 -13 17 -15 18 -15 3 0 -9 -5 -17 -11 -17 -7 0 -18 -8 -25 -17 -13
-17 -14 -17 -8 0 3 9 1 17 -5 17 -6 0 -11 -7 -11 -15 0 -10 -10 -15 -30 -15
-20 0 -30 -5 -30 -15 0 -11 -12 -15 -50 -15 -30 0 -50 -4 -50 -11 0 -6 7 -8
16 -5 8 3 13 2 10 -3 -9 -15 -70 -10 -91 7 -18 16 -19 16 -7 0 12 -15 11 -17
-7 -17 -12 -1 -30 -1 -41 -2 -12 0 -20 -7 -21 -17 0 -14 -2 -15 -7 -2 -10 22
-72 23 -73 2 -1 -15 -2 -15 -6 -1 -2 10 -15 16 -38 16 -25 0 -35 -5 -36 -16 0
-14 -1 -14 -7 0 -5 11 -23 16 -70 16 -34 0 -65 -3 -68 -8 -3 -5 -13 -9 -22 -8
-14 0 -13 2 3 9 14 6 5 8 -30 7 -36 -2 -49 -6 -47 -15 1 -8 -2 -11 -8 -7 -6 3
-8 11 -4 16 3 6 -4 9 -18 8 -51 -5 -79 1 -72 14 5 7 0 6 -11 -3 -17 -13 -18
-13 -13 1 4 9 1 16 -7 16 -7 0 -11 -6 -8 -14 7 -19 -7 -16 -24 5 -12 14 -14
14 -10 1 3 -9 -1 -16 -9 -16 -8 0 -13 6 -10 14 5 13 -3 15 -66 15 -17 1 -28 6
-28 14 0 9 -11 14 -30 14 -21 0 -30 5 -30 16 0 10 -6 14 -15 11 -8 -4 -17 -2
-20 3 -3 5 -15 7 -26 5 -14 -3 -23 2 -26 14 -3 13 -11 17 -24 14 -15 -4 -18
-2 -12 13 6 17 5 17 -11 5 -9 -8 -16 -10 -15 -5 1 5 1 18 0 29 l-2 20 -15 -20
c-10 -12 -14 -14 -12 -5 3 8 -4 21 -16 28 -14 9 -16 12 -3 8 9 -3 17 -1 17 4
0 6 -9 10 -20 10 -14 0 -18 5 -13 17 4 11 3 14 -5 9 -8 -4 -16 3 -22 18 -5 14
-14 26 -20 26 -5 0 -10 9 -10 19 0 11 -4 23 -10 26 -6 4 -7 -1 -3 -11 4 -12 3
-15 -5 -10 -7 4 -12 18 -12 32 0 15 -6 24 -15 24 -14 0 -21 36 -16 78 1 6 -5
12 -14 12 -11 0 -15 8 -13 29 1 17 7 27 13 24 7 -2 12 3 12 11 0 8 -6 12 -12
9 -18 -6 -13 41 5 49 12 5 12 7 -2 7 -11 1 -18 9 -18 22 0 19 -2 20 -17 8 -17
-13 -17 -12 -1 6 24 29 24 213 0 232 -15 12 -15 12 -1 7 14 -4 17 5 17 65 0
60 -2 69 -16 65 -15 -5 -14 -4 1 6 12 8 17 24 17 55 0 38 -3 43 -17 38 -15 -5
-15 -3 1 9 16 13 20 29 20 91 1 54 4 73 12 66 7 -5 11 -4 11 4 4 75 8 95 20
90 12 -5 18 15 15 57 0 12 2 11 12 -2 12 -16 13 -14 14 14 0 17 6 36 13 42 9
8 10 8 5 -1 -4 -7 -2 -13 3 -13 6 0 11 7 11 15 0 8 7 15 16 15 8 0 12 5 9 11
-4 6 2 13 14 16 12 3 21 13 21 24 0 13 5 17 17 12 10 -4 14 -2 10 4 -4 5 1 19
9 29 9 10 13 13 9 7 -3 -7 -1 -13 4 -13 6 0 11 7 11 15 0 13 26 21 53 16 5 -1
6 3 3 8 -3 5 -16 7 -29 4 -12 -3 -20 -3 -17 0 3 3 21 9 40 12 19 3 38 11 41
17 7 10 23 14 87 20 7 1 11 7 8 13 -3 8 8 12 30 13 38 2 57 9 50 20 -2 4 9 8
26 9 20 0 26 -2 17 -7 -7 -5 -16 -7 -20 -4 -4 2 -11 0 -14 -6 -4 -7 3 -10 20
-7 15 2 30 9 34 16 6 9 35 13 95 13 64 0 86 3 86 13 0 18 245 22 256 4z m268
-31 c-3 -4 -9 -8 -15 -8 -5 0 -9 4 -9 8 0 5 7 9 15 9 8 0 12 -4 9 -9z m1021
-108 c3 -5 1 -10 -4 -10 -6 0 -11 5 -11 10 0 6 2 10 4 10 3 0 8 -4 11 -10z
m-2901 -326 c3 -8 2 -12 -4 -9 -6 3 -10 10 -10 16 0 14 7 11 14 -7z m596 -214
c0 -5 -2 -10 -4 -10 -3 0 -8 5 -11 10 -3 6 -1 10 4 10 6 0 11 -4 11 -10z
m-593 -30 c-2 -23 -10 -17 -12 10 -1 10 2 17 6 14 4 -2 7 -13 6 -24z m584 -13
c-10 -9 -11 -8 -5 6 3 10 9 15 12 12 3 -3 0 -11 -7 -18z m9 -77 c0 -5 -5 -10
-11 -10 -5 0 -7 5 -4 10 3 6 8 10 11 10 2 0 4 -4 4 -10z m0 -40 c0 -5 -5 -10
-11 -10 -5 0 -7 5 -4 10 3 6 8 10 11 10 2 0 4 -4 4 -10z m0 -120 c0 -5 -5 -10
-11 -10 -5 0 -7 5 -4 10 3 6 8 10 11 10 2 0 4 -4 4 -10z m0 -40 c0 -5 -2 -10
-4 -10 -3 0 -8 5 -11 10 -3 6 -1 10 4 10 6 0 11 -4 11 -10z m-593 -30 c-2 -23
-10 -17 -12 10 -1 10 2 17 6 14 4 -2 7 -13 6 -24z m593 -10 c0 -5 -5 -10 -11
-10 -5 0 -7 5 -4 10 3 6 8 10 11 10 2 0 4 -4 4 -10z m-596 -146 c3 -8 2 -12
-4 -9 -6 3 -10 10 -10 16 0 14 7 11 14 -7z m4 -119 c-3 -3 -9 2 -12 12 -6 14
-5 15 5 6 7 -7 10 -15 7 -18z m712 -175 c0 -5 -5 -10 -11 -10 -5 0 -7 5 -4 10
3 6 8 10 11 10 2 0 4 -4 4 -10z m-560 -260 c0 -5 -2 -10 -4 -10 -3 0 -8 5 -11
10 -3 6 -1 10 4 10 6 0 11 -4 11 -10z m1200 -10 c8 -5 11 -10 5 -10 -5 0 -17
5 -25 10 -8 5 -10 10 -5 10 6 0 17 -5 25 -10z m120 0 c8 -5 11 -10 5 -10 -5 0
-17 5 -25 10 -8 5 -10 10 -5 10 6 0 17 -5 25 -10z m40 0 c0 -5 -2 -10 -4 -10
-3 0 -8 5 -11 10 -3 6 -1 10 4 10 6 0 11 -4 11 -10z"/>
<path d="M10637 9563 c-10 -9 -9 -23 1 -23 5 0 9 7 9 15 0 17 -1 18 -10 8z"/>
<path d="M10637 8883 c-10 -9 -9 -23 1 -23 5 0 9 7 9 15 0 17 -1 18 -10 8z"/>
<path d="M11830 8416 c7 -7 13 -7 20 0 6 6 3 10 -10 10 -13 0 -16 -4 -10 -10z"/>
<path d="M3061 10518 c-1 -12 -9 -18 -25 -18 -13 0 -27 -6 -29 -12 -4 -10 -6
-10 -6 0 -1 6 -5 12 -11 12 -5 0 -9 -5 -7 -11 1 -6 -4 -13 -11 -14 -7 -2 -8
-1 -2 2 14 7 2 23 -16 23 -8 0 -13 -4 -10 -9 3 -5 -1 -14 -9 -21 -10 -8 -15
-9 -15 -1 0 7 -8 8 -26 1 -14 -6 -30 -8 -35 -4 -5 3 -9 -2 -9 -10 0 -11 -9
-16 -30 -16 -20 0 -30 -5 -30 -15 0 -13 -45 -22 -82 -16 -4 0 -5 -6 -2 -14 5
-11 -2 -15 -25 -15 -19 0 -34 -6 -37 -15 -4 -8 -18 -15 -33 -16 -14 0 -20 -3
-13 -6 6 -2 12 -9 12 -15 0 -6 -6 -8 -13 -5 -7 3 -22 -2 -32 -10 -17 -14 -18
-15 -2 -9 12 4 16 2 11 -5 -3 -6 -17 -9 -30 -6 -22 4 -29 -3 -25 -25 0 -5 -6
-8 -14 -8 -8 0 -15 -7 -15 -15 0 -8 -9 -15 -20 -15 -13 0 -18 -5 -14 -15 4 -9
0 -15 -10 -15 -9 0 -16 -7 -16 -15 0 -8 -7 -15 -15 -15 -8 0 -15 -7 -15 -15 0
-8 -7 -15 -15 -15 -8 0 -15 -7 -15 -15 0 -10 -7 -15 -17 -13 -12 2 -17 -3 -15
-14 2 -11 -3 -18 -13 -18 -8 0 -15 -7 -15 -15 0 -8 -9 -15 -20 -15 -13 0 -18
-5 -14 -15 4 -9 0 -15 -10 -15 -9 0 -16 -7 -16 -16 0 -8 -5 -12 -11 -9 -6 4
-13 -2 -16 -14 -3 -12 -12 -21 -19 -21 -8 0 -14 -7 -14 -15 0 -8 -7 -15 -15
-15 -8 0 -15 -7 -15 -15 0 -8 -7 -15 -15 -15 -8 0 -15 -7 -15 -15 0 -8 -7 -15
-15 -15 -8 0 -15 -7 -15 -15 0 -8 -7 -15 -15 -15 -8 0 -15 -6 -15 -14 0 -7 -9
-16 -21 -19 -12 -3 -18 -10 -14 -16 3 -6 -1 -11 -9 -11 -9 0 -16 -7 -16 -15 0
-8 -9 -15 -20 -15 -13 0 -18 -5 -14 -15 4 -9 0 -15 -10 -15 -9 0 -16 -7 -16
-15 0 -8 -7 -15 -15 -15 -8 0 -15 -7 -15 -15 0 -8 -7 -15 -15 -15 -8 0 -15 -7
-15 -15 0 -8 -7 -15 -15 -15 -8 0 -15 -7 -15 -15 0 -8 -7 -15 -15 -15 -8 0
-15 -7 -15 -15 0 -8 -7 -15 -15 -15 -8 0 -15 -7 -15 -15 0 -8 -7 -15 -15 -15
-8 0 -15 -7 -15 -15 0 -8 -7 -15 -15 -15 -8 0 -15 -7 -15 -15 0 -8 -7 -15 -15
-15 -8 0 -15 -7 -15 -16 0 -8 -5 -12 -11 -9 -6 4 -13 -2 -16 -14 -3 -12 -12
-21 -19 -21 -8 0 -14 -7 -14 -15 0 -8 -7 -15 -15 -15 -8 0 -15 -7 -15 -15 0
-8 -7 -15 -15 -15 -8 0 -15 -7 -15 -16 0 -10 -6 -14 -15 -10 -10 4 -15 -1 -15
-14 0 -11 -7 -20 -15 -20 -8 0 -15 -7 -15 -15 0 -8 -9 -15 -20 -15 -13 0 -18
-5 -14 -15 4 -9 0 -15 -10 -15 -9 0 -16 -7 -16 -15 0 -8 -9 -15 -20 -15 -13 0
-18 -5 -14 -15 4 -9 0 -15 -10 -15 -9 0 -16 -7 -16 -15 0 -8 -3 -14 -7 -14
-28 5 -53 -3 -53 -16 0 -8 -7 -15 -16 -15 -8 0 -12 -5 -9 -11 4 -6 -2 -13 -14
-16 -12 -3 -21 -12 -21 -19 0 -8 -7 -14 -16 -14 -10 0 -14 -6 -10 -15 4 -10
-1 -15 -15 -15 -12 0 -17 -4 -14 -11 4 -6 -2 -13 -14 -16 -12 -3 -21 -12 -21
-19 0 -8 -7 -14 -15 -14 -8 0 -14 -3 -13 -7 4 -10 -39 -53 -52 -53 -5 0 -10
-6 -10 -14 0 -8 -7 -16 -15 -20 -8 -3 -15 -12 -15 -20 0 -10 -6 -13 -15 -10
-9 4 -15 0 -15 -10 0 -9 -6 -16 -14 -16 -7 0 -16 -9 -19 -21 -3 -12 -10 -18
-16 -14 -6 3 -11 -1 -11 -9 0 -9 -7 -16 -15 -16 -8 0 -15 -9 -15 -20 0 -13 -5
-18 -15 -14 -9 4 -15 0 -15 -10 0 -9 -7 -16 -15 -16 -8 0 -15 -7 -15 -15 0 -8
-7 -15 -15 -15 -8 0 -15 -7 -15 -15 0 -8 -7 -15 -16 -15 -10 0 -14 -6 -10 -15
4 -10 -1 -15 -14 -15 -11 0 -20 -7 -20 -15 0 -8 -7 -15 -15 -15 -8 0 -15 -7
-15 -15 0 -8 -7 -15 -15 -15 -8 0 -15 -7 -15 -15 0 -8 -7 -15 -15 -15 -8 0
-15 -7 -15 -15 0 -8 -7 -15 -15 -15 -8 0 -15 -7 -15 -15 0 -8 -7 -15 -15 -15
-8 0 -15 -7 -15 -15 0 -8 -7 -15 -15 -15 -8 0 -15 -7 -15 -15 0 -8 -7 -15 -15
-15 -8 0 -15 -7 -15 -15 0 -8 -7 -15 -15 -15 -8 0 -15 -7 -15 -15 0 -8 -7 -15
-15 -15 -10 0 -15 -7 -13 -17 2 -12 -3 -17 -14 -15 -11 2 -18 -3 -18 -13 0 -8
-7 -15 -16 -15 -8 0 -12 -5 -9 -10 3 -6 -4 -14 -17 -19 -13 -6 -19 -10 -15
-10 11 -1 -72 -81 -84 -81 -5 0 -9 -7 -9 -15 0 -8 -7 -15 -16 -15 -8 0 -12 -5
-9 -11 4 -6 -2 -13 -14 -16 -15 -4 -21 -13 -21 -34 0 -19 -5 -29 -15 -29 -21
0 -19 -26 3 -40 16 -11 16 -11 -1 -6 -9 3 -17 1 -17 -4 0 -11 59 -10 66 2 3 4
13 8 22 7 14 0 13 -2 -3 -9 -14 -6 -5 -8 30 -7 36 2 49 6 47 15 -1 8 2 11 8 7
6 -3 8 -10 5 -15 -6 -10 121 -8 131 3 4 4 14 7 23 6 12 0 11 -3 -4 -9 -13 -5
6 -8 53 -7 49 1 71 5 68 12 -2 7 1 12 7 12 7 1 49 3 95 4 58 3 82 7 82 16 0 8
14 13 40 13 27 0 43 5 46 15 4 8 13 15 21 15 9 0 11 -5 7 -12 -9 -14 27 11 38
27 7 10 11 11 43 14 8 0 15 8 15 16 0 14 11 18 52 18 10 0 14 5 11 13 -3 9 2
14 17 14 14 0 20 5 17 13 -3 8 1 14 9 15 8 1 21 3 29 4 8 1 12 5 9 10 -3 5
-10 6 -15 3 -5 -4 -9 -1 -9 4 0 6 9 11 21 11 14 0 19 5 16 14 -4 10 -1 13 9 9
9 -3 14 2 14 16 0 12 5 21 11 21 6 0 8 -7 5 -16 -3 -8 -2 -12 4 -9 6 3 10 13
10 21 0 10 5 12 13 8 8 -5 7 -2 -2 9 -12 15 -12 17 3 11 12 -5 16 0 17 17 1
13 1 27 0 32 -2 12 17 8 22 -5 6 -13 11 15 8 42 -1 11 1 11 9 -2 13 -22 32
-24 24 -3 -4 8 -1 15 5 15 6 0 11 -5 11 -11 0 -8 4 -8 13 -1 17 15 80 10 93
-7 9 -11 15 -11 30 -2 18 11 17 12 -3 6 -13 -4 -23 -2 -23 2 0 5 29 9 65 9 36
1 65 -4 65 -9 0 -5 6 -5 13 1 17 15 80 10 93 -7 9 -11 15 -11 30 -2 18 11 17
12 -3 6 -13 -4 -23 -2 -23 3 0 16 124 10 138 -7 12 -15 13 -15 9 0 -4 13 15
15 157 15 127 0 163 -3 172 -15 9 -11 15 -11 30 -2 18 11 17 12 -3 6 -13 -4
-23 -2 -23 3 0 14 123 10 138 -5 7 -7 18 -13 25 -13 6 0 2 7 -9 15 -18 13 -16
14 26 15 33 0 41 3 30 10 -9 6 -10 10 -3 10 6 0 15 -4 18 -10 10 -16 68 -13
62 3 -3 8 1 14 8 14 7 0 11 -7 8 -16 -4 -13 -2 -13 10 2 9 11 28 17 56 17 27
0 40 4 39 13 -2 7 11 13 35 15 26 2 35 7 30 15 -4 7 2 5 12 -3 17 -14 18 -13
12 3 -5 13 -1 17 18 17 13 0 29 8 35 18 8 12 10 13 7 2 -3 -10 2 -16 14 -17
10 -1 19 3 19 8 0 6 -4 7 -10 4 -5 -3 -10 -1 -10 4 0 6 11 11 25 11 16 0 25 6
25 15 0 14 17 20 48 16 7 -1 11 3 10 10 -2 6 8 13 22 15 13 3 29 9 35 15 7 7
4 8 -10 4 -14 -4 -12 -2 5 8 14 9 28 13 32 11 4 -3 5 2 2 10 -4 10 -1 16 10
16 18 0 35 29 29 50 -3 10 0 9 7 -3 14 -21 30 -14 23 11 -2 10 2 24 11 31 13
11 15 -27 15 -355 0 -269 3 -369 12 -374 8 -6 8 -9 -2 -14 -8 -3 -5 -4 6 -3
11 2 19 9 17 16 -1 7 2 10 8 6 6 -3 8 -10 5 -15 -3 -4 11 -8 30 -7 22 1 36 7
38 16 4 14 5 14 6 0 1 -11 11 -16 36 -16 25 0 35 5 36 16 0 14 1 14 7 1 10
-22 70 -23 75 -2 4 14 5 15 6 1 1 -11 11 -16 36 -16 25 0 35 5 36 16 0 14 1
14 7 1 10 -22 72 -23 73 -2 0 14 2 15 7 2 8 -17 62 -27 62 -11 0 6 -7 8 -15 5
-8 -4 -15 -2 -15 4 0 13 29 9 38 -4 4 -6 18 -10 32 -10 l25 0 1 129 c1 71 -2
124 -6 117 -5 -8 -9 -7 -13 4 -4 9 -1 15 5 13 7 -1 13 7 15 18 3 15 2 16 -5 7
-7 -11 -10 -11 -15 2 -4 9 -1 15 5 13 7 -1 13 7 15 18 3 15 2 16 -5 7 -7 -11
-10 -11 -15 2 -4 9 -1 15 6 13 16 -3 19 215 3 225 -17 11 -16 47 0 41 8 -3 14
-1 14 5 0 5 -6 12 -14 15 -8 3 -14 15 -13 25 0 11 6 18 12 16 14 -6 15 69 1
78 -16 11 -16 47 0 41 8 -3 14 -1 14 5 0 5 -6 12 -14 15 -8 3 -14 15 -13 26 0
11 5 18 9 15 4 -3 5 -11 1 -19 -3 -8 -1 -15 5 -15 17 0 10 163 -8 178 -13 11
-13 11 1 7 12 -5 15 2 16 27 0 18 -5 36 -11 40 -16 11 -16 47 0 41 8 -3 14 -1
14 5 0 5 -6 12 -14 15 -8 3 -14 15 -13 26 0 11 5 18 9 15 4 -3 5 -11 1 -19 -3
-8 -1 -15 5 -15 17 0 10 163 -8 178 -13 11 -13 11 1 7 12 -5 15 2 16 27 0 18
-5 36 -11 40 -16 11 -16 47 0 41 8 -3 14 -1 14 5 0 5 -6 12 -14 15 -8 3 -14
15 -13 26 0 11 5 18 9 15 4 -3 5 -11 1 -19 -3 -8 -1 -15 5 -15 17 0 10 163 -8
178 -13 11 -13 11 1 7 12 -5 15 2 16 27 0 18 -5 36 -11 40 -16 11 -16 47 0 41
8 -3 14 -1 14 5 0 5 -6 12 -14 15 -8 3 -14 15 -13 26 0 11 5 18 9 15 4 -3 5
-11 1 -19 -3 -8 -1 -15 5 -15 13 0 11 163 -2 172 -12 8 -17 40 -5 32 5 -3 7
-10 4 -15 -4 -5 -2 -9 3 -9 5 0 9 14 10 32 0 20 -2 27 -7 19 -6 -10 -10 -9
-14 3 -4 9 -1 15 5 13 7 -1 13 7 15 18 3 15 2 16 -5 7 -7 -11 -10 -11 -15 2
-4 9 -1 15 5 13 7 -1 13 7 15 18 3 15 2 16 -5 7 -7 -11 -10 -11 -15 2 -4 9 -1
15 6 13 9 -1 12 48 13 206 0 228 6 210 -63 209 -18 0 -33 4 -33 8 0 4 14 6 30
5 17 -1 32 0 34 4 9 14 -121 6 -140 -9 -16 -13 -17 -13 -12 0 5 13 -3 15 -43
15 -26 0 -51 -3 -54 -7 -3 -3 8 -4 25 -3 16 1 30 -1 30 -4 0 -4 -25 -7 -55 -7
-30 0 -55 4 -55 9 0 5 7 7 15 4 8 -4 16 -3 19 1 6 10 -150 9 -159 0 -3 -3 10
-4 29 -3 20 2 38 1 40 -4 3 -4 -46 -7 -107 -7 -91 0 -113 3 -119 16 -5 12 -7
12 -7 -2z m429 -8 c0 -5 -5 -10 -11 -10 -5 0 -7 5 -4 10 3 6 8 10 11 10 2 0 4
-4 4 -10z m184 -36 c3 -8 2 -12 -4 -9 -6 3 -10 10 -10 16 0 14 7 11 14 -7z m2
-50 c1 -9 0 -13 -4 -10 -3 4 -7 14 -8 22 -1 9 0 13 4 10 3 -4 7 -14 8 -22z
m-1 -54 c1 -10 -2 -17 -6 -14 -4 2 -7 13 -6 24 2 23 10 17 12 -10z m-1005 -4
c0 -3 -4 -8 -10 -11 -5 -3 -10 -1 -10 4 0 6 5 11 10 11 6 0 10 -2 10 -4z
m1005 -56 c1 -10 -2 -17 -6 -14 -4 2 -7 13 -6 24 2 23 10 17 12 -10z m0 -60
c1 -10 -2 -17 -6 -14 -4 2 -7 13 -6 24 2 23 10 17 12 -10z m0 -60 c1 -10 -2
-17 -6 -14 -4 2 -7 13 -6 24 2 23 10 17 12 -10z m1 -66 c2 -14 0 -24 -3 -20
-3 3 -7 17 -9 32 -1 14 0 23 3 20 4 -3 8 -18 9 -32z m-557 -705 l0 -539 -593
0 c-541 0 -594 1 -600 16 -6 15 -4 15 11 3 9 -8 14 -9 10 -3 -3 6 1 20 9 30 9
10 13 14 10 7 -4 -6 -3 -14 2 -17 5 -3 9 1 10 9 1 8 3 22 4 30 1 12 4 12 17 2
9 -7 12 -8 8 -1 -4 7 2 14 14 17 12 3 18 10 14 16 -3 6 -1 11 5 11 7 0 10 6 7
13 -3 8 3 14 16 14 11 1 25 7 31 13 8 8 6 9 -6 5 -11 -4 -18 -2 -18 4 0 6 5
11 10 11 6 0 19 9 30 20 12 12 26 17 37 13 15 -5 15 -3 -2 11 l-20 17 20 -3
c13 -2 20 2 19 13 -1 9 5 16 12 17 8 1 21 3 29 4 8 1 12 5 9 10 -3 5 -10 6
-15 3 -5 -4 -9 -1 -9 4 0 6 9 11 21 11 15 0 19 4 15 16 -6 15 -4 15 11 3 9 -8
14 -9 10 -3 -4 7 2 14 14 17 12 3 18 10 15 16 -4 5 3 12 14 16 11 4 18 10 15
14 -2 5 3 17 11 27 14 17 15 17 10 1 -3 -11 -2 -16 4 -12 6 3 10 13 10 21 0
10 5 12 13 8 9 -6 9 -5 0 7 -10 13 -10 16 2 17 8 1 22 3 30 4 8 1 12 5 9 10
-3 5 -10 5 -16 2 -7 -4 -8 -2 -4 4 4 7 14 12 23 12 10 0 13 6 9 16 -3 8 -2 12
4 9 5 -3 14 4 20 15 6 11 18 20 26 20 11 0 14 5 10 16 -6 15 -4 15 11 3 9 -8
14 -9 10 -3 -4 7 2 14 14 17 12 3 18 10 15 16 -4 5 3 12 14 16 11 4 18 10 15
15 -9 14 34 52 48 43 9 -5 9 -3 0 8 -10 13 -10 16 2 17 8 1 22 3 30 4 8 1 12
5 9 10 -3 5 -11 6 -17 2 -7 -3 -3 2 8 11 11 9 19 20 18 25 -2 5 4 7 12 4 8 -4
15 -1 15 6 0 7 7 10 18 6 14 -5 14 -4 -2 9 -19 15 -19 15 3 15 17 0 22 4 17
16 -3 8 -2 12 3 9 5 -3 12 -1 16 4 3 6 13 7 23 4 14 -5 13 -2 -3 11 -17 15
-17 17 -2 12 15 -5 22 5 18 27 -1 5 3 5 10 2 6 -4 17 3 26 15 9 12 21 19 30
16 9 -4 17 1 20 14 3 11 9 20 14 20 12 0 49 38 49 50 0 6 9 10 20 10 13 0 18
5 14 15 -4 9 0 15 10 15 9 0 16 7 16 15 0 10 11 15 35 15 21 0 35 5 35 13 0 8
4 7 10 -3 9 -13 14 -8 11 12 0 4 12 6 28 6 l29 -1 1 -538z m556 471 c1 -10 -2
-17 -6 -14 -4 2 -7 13 -6 24 2 23 10 17 12 -10z m0 -60 c1 -10 -2 -17 -6 -14
-4 2 -7 13 -6 24 2 23 10 17 12 -10z m5 -174 c0 -3 -4 -8 -10 -11 -5 -3 -10
-1 -10 4 0 6 5 11 10 11 6 0 10 -2 10 -4z m-5 -86 c1 -10 -2 -17 -6 -14 -4 2
-7 13 -6 24 2 23 10 17 12 -10z m0 -60 c1 -10 -2 -17 -6 -14 -4 2 -7 13 -6 24
2 23 10 17 12 -10z m-1170 -40 c3 -5 1 -10 -4 -10 -6 0 -11 5 -11 10 0 6 2 10
4 10 3 0 8 -4 11 -10z m1175 -134 c0 -3 -4 -8 -10 -11 -5 -3 -10 -1 -10 4 0 6
5 11 10 11 6 0 10 -2 10 -4z m-5 -86 c1 -10 -2 -17 -6 -14 -4 2 -7 13 -6 24 2
23 10 17 12 -10z m-1410 -20 c3 -5 1 -10 -4 -10 -6 0 -11 5 -11 10 0 6 2 10 4
10 3 0 8 -4 11 -10z m1410 -40 c1 -10 -2 -17 -6 -14 -4 2 -7 13 -6 24 2 23 10
17 12 -10z m5 -174 c0 -3 -4 -8 -10 -11 -5 -3 -10 -1 -10 4 0 6 5 11 10 11 6
0 10 -2 10 -4z m-1655 -26 c3 -5 1 -10 -4 -10 -6 0 -11 5 -11 10 0 6 2 10 4
10 3 0 8 -4 11 -10z m1650 -60 c1 -10 -2 -17 -6 -14 -4 2 -7 13 -6 24 2 23 10
17 12 -10z m0 -60 c1 -10 -2 -17 -6 -14 -4 2 -7 13 -6 24 2 23 10 17 12 -10z
m5 -174 c0 -3 -4 -8 -10 -11 -5 -3 -10 -1 -10 4 0 6 5 11 10 11 6 0 10 -2 10
-4z m-6 -172 c3 -8 2 -12 -4 -9 -6 3 -10 10 -10 16 0 14 7 11 14 -7z m1 -54
c1 -10 -2 -17 -6 -14 -4 2 -7 13 -6 24 2 23 10 17 12 -10z m0 -60 c1 -10 -2
-17 -6 -14 -4 2 -7 13 -6 24 2 23 10 17 12 -10z m-1155 10 c8 -5 11 -10 5 -10
-5 0 -17 5 -25 10 -8 5 -10 10 -5 10 6 0 17 -5 25 -10z m1160 -75 c0 -5 -5 -3
-10 5 -5 8 -10 20 -10 25 0 6 5 3 10 -5 5 -8 10 -19 10 -25z m-4 -161 c1 -9 0
-13 -4 -10 -3 4 -7 14 -8 22 -1 9 0 13 4 10 3 -4 7 -14 8 -22z m-1 -54 c1 -10
-2 -17 -6 -14 -4 2 -7 13 -6 24 2 23 10 17 12 -10z m0 -60 c1 -10 -2 -17 -6
-14 -4 2 -7 13 -6 24 2 23 10 17 12 -10z m-3265 -70 c8 -5 11 -10 5 -10 -5 0
-17 5 -25 10 -8 5 -10 10 -5 10 6 0 17 -5 25 -10z m235 0 c3 -6 -1 -7 -9 -4
-18 7 -21 14 -7 14 6 0 13 -4 16 -10z m45 0 c8 -5 11 -10 5 -10 -5 0 -17 5
-25 10 -8 5 -10 10 -5 10 6 0 17 -5 25 -10z m-153 -6 c-3 -3 -12 -4 -19 -1 -8
3 -5 6 6 6 11 1 17 -2 13 -5z"/>
<path d="M3085 10519 c5 -7 52 -6 59 2 3 2 -10 5 -29 5 -18 0 -32 -3 -30 -7z"/>
<path d="M3164 10518 c-3 -4 5 -5 17 -3 30 6 36 14 9 12 -12 -1 -24 -5 -26 -9z"/>
<path d="M5759 10503 c-5 -13 -11 -23 -14 -23 -4 0 -3 5 0 10 4 6 -5 10 -19
10 -16 0 -25 -5 -23 -12 1 -8 -11 -14 -29 -16 -22 -2 -34 -9 -37 -24 -3 -11
-10 -17 -16 -13 -6 3 -11 0 -11 -7 0 -7 -11 -18 -25 -25 -14 -6 -23 -7 -19 -2
3 5 0 9 -5 9 -6 0 -11 -7 -11 -15 0 -8 -7 -15 -15 -15 -8 0 -15 -9 -15 -20 0
-13 -5 -18 -15 -14 -14 6 -21 -18 -16 -49 1 -5 -3 -6 -9 -2 -6 3 -7 12 -4 18
4 7 3 8 -2 4 -9 -9 -10 -13 -13 -42 0 -8 -8 -15 -16 -15 -14 0 -20 -17 -16
-47 1 -7 -5 -13 -14 -13 -13 0 -19 -17 -18 -57 0 -6 -6 -9 -13 -6 -15 5 -15 3
-17 -72 0 -33 -4 -44 -14 -41 -13 6 -17 -8 -14 -57 1 -16 -5 -30 -14 -33 -13
-5 -15 -121 -15 -970 0 -764 3 -964 13 -964 8 0 7 -4 -3 -11 -12 -8 -11 -9 5
-6 11 2 19 8 18 14 -1 7 6 9 19 5 21 -5 21 -6 2 -14 -16 -6 -15 -7 6 -5 14 1
24 8 22 15 -1 8 2 11 8 7 6 -3 8 -10 5 -15 -6 -10 121 -8 131 3 4 4 14 7 23 6
12 0 11 -3 -4 -9 -14 -6 -5 -8 30 -7 36 2 49 6 47 15 -1 8 2 11 8 7 6 -3 8
-10 5 -15 -6 -10 121 -8 131 3 4 4 14 7 23 6 12 0 11 -3 -4 -9 -14 -6 -6 -8
28 -7 26 1 48 7 48 12 0 6 4 15 8 20 4 6 7 92 7 192 -1 99 2 179 7 176 4 -2 5
-8 2 -13 -3 -5 -2 -11 2 -13 5 -3 8 33 8 79 1 46 -3 84 -8 84 -4 0 -6 -4 -3
-8 2 -4 1 -13 -2 -19 -4 -7 -7 75 -7 182 0 106 3 191 8 188 4 -2 5 -8 2 -13
-3 -5 -2 -11 2 -13 5 -3 8 33 8 79 1 46 -3 84 -8 84 -4 0 -6 -4 -3 -8 2 -4 2
-13 -2 -19 -4 -6 -7 220 -7 502 0 282 3 511 6 509 4 -2 6 -20 4 -39 -1 -19 1
-33 4 -29 9 9 8 204 -2 204 -4 0 -6 -4 -3 -8 2 -4 1 -13 -2 -20 -4 -6 -7 83
-7 199 0 115 -3 215 -7 222 -4 7 -30 12 -59 12 -44 1 -52 -2 -60 -22z m111 9
c0 -4 -9 -8 -20 -9 -11 -1 -20 2 -20 5 0 4 9 8 20 9 11 1 20 -2 20 -5z m25
-477 c-4 -39 -12 -39 -11 -1 1 19 4 32 8 30 3 -2 5 -15 3 -29z m0 -1120 c-4
-39 -12 -39 -11 -1 1 19 4 32 8 30 3 -2 5 -15 3 -29z m0 -480 c-4 -39 -12 -39
-11 -1 1 19 4 32 8 30 3 -2 5 -15 3 -29z m-285 -435 c8 -5 11 -10 5 -10 -5 0
-17 5 -25 10 -8 5 -10 10 -5 10 6 0 17 -5 25 -10z m240 0 c8 -5 11 -10 5 -10
-5 0 -17 5 -25 10 -8 5 -10 10 -5 10 6 0 17 -5 25 -10z m-353 -6 c-3 -3 -12
-4 -19 -1 -8 3 -5 6 6 6 11 1 17 -2 13 -5z m240 0 c-3 -3 -12 -4 -19 -1 -8 3
-5 6 6 6 11 1 17 -2 13 -5z"/>
<path d="M12206 10522 c-3 -5 1 -9 9 -9 8 0 15 4 15 9 0 4 -4 8 -9 8 -6 0 -12
-4 -15 -8z"/>
<path d="M5675 10490 c-3 -5 -1 -10 4 -10 6 0 11 5 11 10 0 6 -2 10 -4 10 -3
0 -8 -4 -11 -10z"/>
<path d="M5899 10498 c-5 -12 -5 -59 0 -62 3 -2 7 11 8 30 1 27 -3 45 -8 32z"/>
<path d="M2765 10430 c-3 -5 -1 -10 4 -10 6 0 11 5 11 10 0 6 -2 10 -4 10 -3
0 -8 -4 -11 -10z"/>
<path d="M5894 10395 c0 -28 8 -24 13 5 2 11 -1 20 -5 20 -4 0 -8 -11 -8 -25z"/>
<path d="M6950 10406 c0 -2 7 -7 16 -10 8 -3 12 -2 9 4 -6 10 -25 14 -25 6z"/>
<path d="M5894 10335 c0 -28 8 -24 13 5 2 11 -1 20 -5 20 -4 0 -8 -11 -8 -25z"/>
<path d="M5894 10275 c0 -28 8 -24 13 5 2 11 -1 20 -5 20 -4 0 -8 -11 -8 -25z"/>
<path d="M5894 10215 c0 -28 8 -24 13 5 2 11 -1 20 -5 20 -4 0 -8 -11 -8 -25z"/>
<path d="M5894 10155 c0 -28 8 -24 13 5 2 11 -1 20 -5 20 -4 0 -8 -11 -8 -25z"/>
<path d="M5343 10060 c-1 -11 2 -20 7 -20 4 0 7 7 6 15 -3 23 -12 26 -13 5z"/>
<path d="M12940 9946 c0 -8 4 -17 9 -20 5 -4 7 3 4 14 -6 23 -13 26 -13 6z"/>
<path d="M5894 9875 c0 -28 8 -24 13 5 2 11 -1 20 -5 20 -4 0 -8 -11 -8 -25z"/>
<path d="M6519 9898 c-5 -9 -5 -48 -1 -43 8 7 13 45 7 45 -3 0 -6 -1 -6 -2z"/>
<path d="M5894 9796 c0 -25 3 -43 5 -40 8 7 9 84 2 84 -4 0 -7 -20 -7 -44z"/>
<path d="M6491 9744 c0 -11 3 -14 6 -6 3 7 2 16 -1 19 -3 4 -6 -2 -5 -13z"/>
<path d="M5894 9715 c0 -28 8 -24 13 5 2 11 -1 20 -5 20 -4 0 -8 -11 -8 -25z"/>
<path d="M3670 9710 c0 -5 5 -10 10 -10 6 0 10 5 10 10 0 6 -4 10 -10 10 -5 0
-10 -4 -10 -10z"/>
<path d="M6485 9710 c-3 -5 -1 -10 4 -10 6 0 11 5 11 10 0 6 -2 10 -4 10 -3 0
-8 -4 -11 -10z"/>
<path d="M5894 9636 c0 -25 3 -43 5 -40 8 7 9 84 2 84 -4 0 -7 -20 -7 -44z"/>
<path d="M9490 9649 c0 -5 5 -7 10 -4 6 3 10 8 10 11 0 2 -4 4 -10 4 -5 0 -10
-5 -10 -11z"/>
<path d="M5894 9555 c0 -28 8 -24 13 5 2 11 -1 20 -5 20 -4 0 -8 -11 -8 -25z"/>
<path d="M4433 9556 c-3 -5 -1 -6 5 -2 7 4 12 5 12 2 0 -2 -14 -11 -30 -20
-17 -8 -28 -10 -25 -5 4 5 -5 9 -19 9 -16 0 -26 -6 -26 -15 0 -10 -10 -15 -30
-15 -20 0 -30 -5 -30 -15 0 -18 -16 -20 -23 -2 -3 6 -6 -1 -7 -18 -1 -29 -1
-29 -17 -10 -12 16 -14 16 -10 3 3 -10 2 -20 -4 -23 -5 -4 -7 -11 -4 -16 4 -5
0 -9 -8 -9 -8 0 -18 -7 -21 -16 -3 -8 -10 -12 -16 -9 -5 3 -11 -3 -11 -14 -2
-34 -4 -39 -13 -48 -5 -4 -6 -3 -2 4 3 6 3 14 -2 17 -4 2 -9 -7 -10 -21 -3
-33 -11 -45 -25 -36 -7 4 -5 -2 3 -12 9 -11 10 -16 3 -11 -9 5 -13 -1 -13 -18
0 -14 -5 -25 -11 -23 -7 1 -13 -14 -14 -37 -2 -26 0 -34 6 -24 5 8 7 25 4 37
-2 12 0 19 5 16 6 -3 9 -21 7 -40 -1 -18 -5 -31 -9 -29 -4 2 -9 0 -12 -4 -8
-13 -11 -170 -4 -178 4 -3 4 -12 2 -18 -4 -9 11 -13 52 -15 53 -1 56 0 43 16
-13 17 -13 17 7 0 14 -12 35 -17 67 -16 25 1 44 6 41 10 -2 4 0 11 6 14 6 4 9
1 8 -7 -2 -7 8 -14 22 -16 22 -4 23 -2 10 15 -14 17 -14 17 6 0 14 -12 35 -17
67 -16 25 1 44 6 41 10 -2 4 0 11 6 14 6 4 9 1 8 -7 -2 -8 9 -14 30 -16 24 -2
32 1 32 12 0 13 14 16 75 16 60 0 75 3 75 15 0 10 10 15 29 15 17 0 33 5 36
10 3 6 1 10 -6 10 -7 0 -9 3 -6 6 4 4 14 1 22 -6 13 -11 16 -11 13 1 -2 9 4
13 15 11 9 -2 17 2 17 8 0 6 -4 9 -9 5 -5 -3 -13 0 -17 6 -4 8 -3 9 5 5 7 -4
15 2 20 16 7 17 10 19 10 6 1 -32 18 -19 20 15 3 54 4 56 13 51 5 -3 5 -11 2
-17 -4 -7 -3 -8 1 -4 11 9 17 34 16 64 -1 16 4 21 14 17 12 -5 15 4 15 45 0
37 4 51 14 51 11 0 14 24 14 120 0 96 -3 120 -14 120 -8 0 -14 6 -14 13 0 10
-49 13 -226 13 -131 0 -228 -4 -231 -10z m57 -4 c0 -5 -7 -9 -15 -9 -8 0 -15
4 -15 9 0 4 7 8 15 8 8 0 15 -4 15 -8z m144 -3 c3 -2 -17 -5 -44 -4 -26 0 -46
3 -44 6 4 7 81 6 88 -2z m96 0 c0 -4 -9 -7 -19 -6 -11 0 -18 4 -16 7 6 9 35 8
35 -1z m80 3 c0 -5 -7 -9 -15 -9 -8 0 -12 4 -9 9 3 4 9 8 15 8 5 0 9 -4 9 -8z"/>
<path d="M5894 9476 c0 -25 3 -43 5 -40 8 7 9 84 2 84 -4 0 -7 -20 -7 -44z"/>
<path d="M5894 9395 c0 -28 8 -24 13 5 2 11 -1 20 -5 20 -4 0 -8 -11 -8 -25z"/>
<path d="M3670 9390 c0 -5 5 -10 10 -10 6 0 10 5 10 10 0 6 -4 10 -10 10 -5 0
-10 -4 -10 -10z"/>
<path d="M5894 9335 c0 -28 8 -24 13 5 2 11 -1 20 -5 20 -4 0 -8 -11 -8 -25z"/>
<path d="M5894 9275 c0 -28 8 -24 13 5 2 11 -1 20 -5 20 -4 0 -8 -11 -8 -25z"/>
<path d="M5894 9215 c0 -28 8 -24 13 5 2 11 -1 20 -5 20 -4 0 -8 -11 -8 -25z"/>
<path d="M5894 9155 c0 -28 8 -24 13 5 2 11 -1 20 -5 20 -4 0 -8 -11 -8 -25z"/>
<path d="M5894 9095 c0 -28 8 -24 13 5 2 11 -1 20 -5 20 -4 0 -8 -11 -8 -25z"/>
<path d="M3670 9070 c0 -5 5 -10 10 -10 6 0 10 5 10 10 0 6 -4 10 -10 10 -5 0
-10 -4 -10 -10z"/>
<path d="M5894 9035 c0 -28 8 -24 13 5 2 11 -1 20 -5 20 -4 0 -8 -11 -8 -25z"/>
<path d="M4050 9010 c0 -5 5 -10 11 -10 5 0 7 5 4 10 -3 6 -8 10 -11 10 -2 0
-4 -4 -4 -10z"/>
<path d="M9493 8872 c2 -12 6 -24 10 -28 3 -4 4 4 2 16 -6 30 -16 40 -12 12z"/>
<path d="M6491 8824 c0 -11 3 -14 6 -6 3 7 2 16 -1 19 -3 4 -6 -2 -5 -13z"/>
<path d="M5894 8795 c0 -28 8 -24 13 5 2 11 -1 20 -5 20 -4 0 -8 -11 -8 -25z"/>
<path d="M6491 8784 c0 -11 3 -14 6 -6 3 7 2 16 -1 19 -3 4 -6 -2 -5 -13z"/>
<path d="M9463 8760 c-1 -11 2 -22 6 -24 4 -3 7 4 6 14 -2 27 -10 33 -12 10z"/>
<path d="M3670 8750 c0 -5 5 -10 10 -10 6 0 10 5 10 10 0 6 -4 10 -10 10 -5 0
-10 -4 -10 -10z"/>
<path d="M5894 8735 c0 -28 8 -24 13 5 2 11 -1 20 -5 20 -4 0 -8 -11 -8 -25z"/>
<path d="M5894 8675 c0 -28 8 -24 13 5 2 11 -1 20 -5 20 -4 0 -8 -11 -8 -25z"/>
<path d="M3670 8630 c0 -5 5 -10 10 -10 6 0 10 5 10 10 0 6 -4 10 -10 10 -5 0
-10 -4 -10 -10z"/>
<path d="M5894 8615 c0 -28 8 -24 13 5 2 11 -1 20 -5 20 -4 0 -8 -11 -8 -25z"/>
<path d="M3670 8570 c0 -5 5 -10 10 -10 6 0 10 5 10 10 0 6 -4 10 -10 10 -5 0
-10 -4 -10 -10z"/>
<path d="M5894 8555 c0 -28 8 -24 13 5 2 11 -1 20 -5 20 -4 0 -8 -11 -8 -25z"/>
<path d="M1455 8380 c-3 -5 -1 -10 4 -10 6 0 11 5 11 10 0 6 -2 10 -4 10 -3 0
-8 -4 -11 -10z"/>
<path d="M1490 8380 c0 -5 5 -10 11 -10 5 0 7 5 4 10 -3 6 -8 10 -11 10 -2 0
-4 -4 -4 -10z"/>
<path d="M1624 8382 c4 -3 14 -7 22 -8 9 -1 13 0 10 4 -4 3 -14 7 -22 8 -9 1
-13 0 -10 -4z"/>
<path d="M1695 8380 c-3 -5 -1 -10 4 -10 6 0 11 5 11 10 0 6 -2 10 -4 10 -3 0
-8 -4 -11 -10z"/>
<path d="M1730 8380 c0 -5 5 -10 11 -10 5 0 7 5 4 10 -3 6 -8 10 -11 10 -2 0
-4 -4 -4 -10z"/>
<path d="M1864 8382 c4 -3 14 -7 22 -8 9 -1 13 0 10 4 -4 3 -14 7 -22 8 -9 1
-13 0 -10 -4z"/>
<path d="M1967 8379 c7 -7 15 -10 18 -7 3 3 -2 9 -12 12 -14 6 -15 5 -6 -5z"/>
<path d="M2047 8379 c7 -7 15 -10 18 -7 3 3 -2 9 -12 12 -14 6 -15 5 -6 -5z"/>
<path d="M2127 8379 c7 -7 15 -10 18 -7 3 3 -2 9 -12 12 -14 6 -15 5 -6 -5z"/>
<path d="M2207 8379 c7 -7 15 -10 18 -7 3 3 -2 9 -12 12 -14 6 -15 5 -6 -5z"/>
<path d="M2344 8382 c4 -3 14 -7 22 -8 9 -1 13 0 10 4 -4 3 -14 7 -22 8 -9 1
-13 0 -10 -4z"/>
<path d="M10175 8350 c3 -5 8 -10 11 -10 2 0 4 5 4 10 0 6 -5 10 -11 10 -5 0
-7 -4 -4 -10z"/>
<path d="M5894 8315 c0 -28 8 -24 13 5 2 11 -1 20 -5 20 -4 0 -8 -11 -8 -25z"/>
<path d="M5894 8255 c0 -28 8 -24 13 5 2 11 -1 20 -5 20 -4 0 -8 -11 -8 -25z"/>
<path d="M5894 8195 c0 -28 8 -24 13 5 2 11 -1 20 -5 20 -4 0 -8 -11 -8 -25z"/>
<path d="M5894 8135 c0 -28 8 -24 13 5 2 11 -1 20 -5 20 -4 0 -8 -11 -8 -25z"/>
<path d="M5894 8075 c0 -28 8 -24 13 5 2 11 -1 20 -5 20 -4 0 -8 -11 -8 -25z"/>
<path d="M5893 8033 c4 -3 1 -13 -6 -22 -11 -14 -10 -14 6 -2 20 15 22 31 5
31 -6 0 -8 -3 -5 -7z"/>
<path d="M7530 7959 c0 -5 5 -7 10 -4 6 3 10 8 10 11 0 2 -4 4 -10 4 -5 0 -10
-5 -10 -11z"/>
<path d="M11910 7960 c0 -5 5 -10 11 -10 5 0 7 5 4 10 -3 6 -8 10 -11 10 -2 0
-4 -4 -4 -10z"/>
<path d="M1930 7125 c10 -12 5 -13 -82 -16 -49 -2 -56 -4 -46 -16 9 -11 8 -13
-3 -11 -8 2 -17 8 -21 13 -5 6 -8 5 -8 -2 0 -8 -13 -13 -30 -13 -18 0 -30 -5
-30 -13 0 -7 -12 -14 -27 -15 -32 -3 -34 -4 -36 -30 -1 -16 -4 -18 -14 -11 -8
7 -18 7 -30 -1 -17 -11 -16 -11 2 -5 13 4 16 3 10 -3 -5 -6 -19 -12 -29 -14
-11 -1 -21 -13 -23 -26 -1 -13 -16 -35 -33 -50 -20 -19 -30 -38 -32 -64 -1
-20 -6 -34 -10 -32 -5 3 -6 10 -3 15 4 5 1 9 -5 9 -6 0 -10 -6 -9 -12 4 -36
-2 -59 -13 -52 -9 6 -9 3 0 -9 13 -16 4 -52 -13 -52 -6 0 -8 -86 -6 -272 1
-40 5 -53 16 -53 11 0 15 -12 15 -44 0 -25 5 -48 12 -52 8 -5 9 -2 5 9 -3 9
-2 19 4 22 5 4 9 3 8 -2 -1 -4 -1 -25 0 -45 1 -27 6 -38 16 -38 8 0 15 -7 15
-15 0 -8 9 -24 20 -35 12 -12 18 -26 14 -32 -4 -6 -3 -8 4 -4 6 3 13 2 17 -4
4 -6 12 -7 18 -3 7 4 5 -1 -2 -11 -13 -16 -13 -18 0 -16 31 5 49 -1 49 -15 0
-9 9 -15 25 -15 13 0 28 -7 33 -16 5 -9 21 -16 36 -16 15 0 26 -6 26 -14 0
-10 16 -14 60 -14 47 0 60 -3 60 -15 0 -19 50 -20 69 -2 11 10 13 10 7 0 -5
-9 3 -13 29 -13 20 0 38 6 41 13 2 7 23 14 46 16 48 2 61 8 52 22 -3 6 0 10 7
8 8 -1 29 -1 47 0 25 1 32 5 32 21 0 13 5 18 15 14 9 -4 15 0 15 10 0 9 7 16
15 16 12 0 15 10 14 43 -3 57 -15 77 -45 77 -21 0 -25 -4 -20 -17 5 -15 4 -15
-9 1 -13 17 -15 18 -15 3 0 -13 -9 -17 -37 -18 -88 -3 -102 -4 -108 -11 -4 -4
4 -5 19 -2 14 2 26 0 26 -5 0 -5 -22 -8 -50 -8 -27 1 -50 5 -50 10 0 5 10 6
23 2 15 -4 18 -3 7 3 -17 10 -125 10 -136 0 -4 -4 3 -5 15 -3 12 2 19 0 16 -5
-10 -16 -52 -8 -51 9 1 9 -7 16 -19 16 -11 0 -19 6 -18 12 2 7 0 12 -5 12 -4
-1 -19 -1 -34 0 -20 1 -26 5 -22 16 5 11 2 13 -10 9 -12 -4 -16 0 -16 15 0 12
-6 21 -15 21 -8 0 -15 7 -15 15 0 8 -7 15 -15 15 -8 0 -15 5 -15 11 0 6 -7 17
-15 25 -8 9 -15 30 -15 49 0 18 -3 41 -6 49 -6 15 10 16 155 15 115 -1 159 -5
154 -13 -3 -6 0 -5 8 2 7 6 28 12 47 12 24 0 31 -4 26 -12 -6 -10 -4 -10 7 0
7 6 28 12 47 12 24 0 31 -4 26 -12 -6 -10 -4 -10 7 0 7 7 38 12 71 12 46 0 58
3 58 16 0 8 5 12 10 9 6 -4 7 -11 4 -17 -4 -7 -2 -8 5 -4 6 4 9 12 6 17 -4 5
3 9 14 9 12 0 21 7 21 15 0 8 7 15 15 15 10 0 15 10 15 29 0 16 6 31 15 35 12
4 15 27 15 121 0 96 -3 115 -15 115 -11 0 -15 11 -15 39 0 22 -4 43 -10 46 -6
3 -7 -1 -4 -9 3 -9 1 -16 -5 -16 -6 0 -11 14 -11 30 0 20 -5 30 -15 30 -10 0
-15 10 -15 30 0 17 -5 30 -11 30 -5 0 -8 -4 -4 -9 3 -5 0 -13 -6 -17 -8 -5 -9
-3 -5 5 5 8 0 14 -13 18 -12 3 -21 12 -21 19 0 9 -11 14 -30 14 -20 0 -30 5
-30 15 0 14 -17 20 -47 16 -7 -1 -13 3 -13 9 0 6 4 9 9 5 5 -3 12 -1 15 4 3 5
-25 8 -65 7 -39 0 -73 2 -76 7 -2 4 -8 5 -13 2 -5 -3 -12 0 -16 6 -4 8 -3 9 4
5 7 -4 12 -3 12 2 0 6 -11 9 -24 8 -16 0 -21 -5 -16 -11z m-340 -155 c0 -5 -2
-10 -4 -10 -3 0 -8 5 -11 10 -3 6 -1 10 4 10 6 0 11 -4 11 -10z m360 -20 c0
-5 -5 -10 -11 -10 -5 0 -7 5 -4 10 3 6 8 10 11 10 2 0 4 -4 4 -10z m62 -19
c25 6 69 -11 62 -23 -5 -8 -2 -9 9 -5 12 5 17 1 17 -13 0 -11 7 -20 15 -20 8
0 15 -7 15 -15 0 -8 7 -15 15 -15 10 0 15 -10 15 -30 0 -20 5 -30 15 -30 12 0
15 -13 15 -60 l0 -61 -285 1 c-241 1 -285 3 -285 16 0 8 7 14 15 14 10 0 15
10 15 29 0 37 10 62 21 55 5 -3 9 4 9 15 0 12 7 21 15 21 8 0 15 7 15 15 0 8
7 15 15 15 8 0 15 7 15 15 0 8 7 15 15 15 8 0 15 7 15 15 0 8 7 15 15 15 8 0
15 7 15 15 0 8 4 15 10 15 5 0 7 -8 3 -17 -5 -15 -3 -15 9 1 13 16 28 19 87
19 61 0 71 3 66 16 -4 12 -2 11 9 -2 8 -10 20 -17 28 -16z m113 -41 c3 -5 1
-10 -4 -10 -6 0 -11 5 -11 10 0 6 2 10 4 10 3 0 8 -4 11 -10z m-491 -425 c3
-8 1 -15 -4 -15 -6 0 -10 7 -10 15 0 8 2 15 4 15 2 0 6 -7 10 -15z"/>
<path d="M4112 7124 c-7 -13 -25 -17 -81 -17 -56 0 -71 -3 -67 -14 4 -9 -4
-13 -30 -13 -29 0 -35 -3 -30 -16 3 -8 2 -12 -4 -9 -5 3 -19 -4 -31 -16 -16
-16 -21 -18 -16 -6 3 9 3 17 -2 17 -5 0 -11 -9 -14 -21 -3 -12 -10 -18 -15
-15 -16 10 -52 -23 -45 -42 6 -15 5 -16 -12 -2 -10 8 -16 10 -12 3 5 -7 -1
-21 -13 -33 -11 -11 -20 -27 -20 -35 0 -9 -6 -12 -15 -8 -9 3 -15 2 -14 -3 4
-23 -2 -35 -13 -28 -8 5 -7 0 2 -11 13 -17 13 -18 -1 -13 -16 6 -17 4 -20 -57
0 -19 -5 -35 -11 -35 -5 0 -6 6 -2 13 5 8 4 9 -4 2 -6 -5 -12 -53 -14 -105 -3
-68 -7 -94 -16 -92 -7 1 -12 -5 -12 -13 0 -8 7 -15 15 -15 12 0 15 -16 15 -80
0 -62 3 -78 13 -74 10 4 14 -6 15 -33 1 -54 7 -76 20 -81 7 -2 12 -10 12 -18
0 -8 7 -14 15 -14 13 0 21 -26 16 -53 -1 -5 3 -6 9 -2 6 3 7 12 4 18 -4 7 -3
8 2 4 5 -5 9 -14 9 -20 0 -7 7 -12 15 -12 8 0 15 -7 15 -15 0 -8 5 -15 12 -15
6 0 15 -4 20 -9 5 -5 3 -6 -4 -2 -7 4 -13 2 -13 -3 0 -6 11 -11 24 -11 14 0
28 -4 31 -10 3 -5 0 -7 -8 -4 -8 3 -17 2 -20 -3 -3 -5 4 -10 16 -11 41 -4 56
-8 64 -17 4 -4 3 -5 -4 -1 -6 3 -15 2 -18 -4 -4 -6 -3 -10 2 -9 4 1 25 1 46 0
26 -1 37 -6 37 -16 0 -11 12 -15 50 -15 38 0 48 -3 44 -14 -4 -10 11 -14 71
-14 55 0 74 3 69 11 -5 8 -3 8 7 0 18 -17 29 -16 29 2 0 11 12 15 48 16 26 1
53 1 60 0 6 -1 12 5 12 14 0 10 10 15 30 15 20 0 30 5 30 15 0 8 7 15 15 15 8
0 15 7 15 15 0 8 7 15 15 15 11 0 15 12 15 46 0 28 -4 43 -10 39 -6 -4 -7 -12
-4 -18 4 -7 3 -8 -2 -4 -5 5 -9 18 -9 30 0 18 -6 22 -32 23 -18 1 -30 -3 -27
-8 3 -4 11 -5 17 -2 7 4 8 3 4 -2 -8 -8 -48 -13 -134 -17 -23 -1 -40 -4 -38
-8 3 -3 22 -5 44 -4 22 1 38 -1 36 -5 -7 -12 -94 -8 -98 5 -6 13 -141 14 -154
1 -5 -5 -2 -6 6 -1 10 5 12 4 7 -4 -4 -6 -12 -9 -17 -5 -5 3 -7 10 -4 15 4 5
-10 9 -29 9 -25 0 -36 4 -36 15 0 8 -9 15 -21 15 -11 0 -17 5 -14 10 3 6 -1
13 -9 16 -9 3 -16 12 -16 20 0 8 -7 14 -15 14 -8 0 -15 7 -15 15 0 8 -7 15
-15 15 -14 0 -19 16 -16 50 1 11 -3 9 -15 -5 -11 -14 -15 -16 -14 -5 6 42 0
59 -17 53 -16 -6 -17 -5 -3 12 9 11 10 16 3 11 -9 -5 -13 0 -12 16 0 13 3 17
6 11 2 -7 9 -13 14 -13 6 0 7 5 4 10 -4 6 5 10 20 10 18 0 24 -4 19 -12 -6
-10 -4 -10 7 0 7 6 28 12 47 12 24 0 31 -4 26 -12 -6 -10 -4 -10 7 0 7 6 28
12 47 12 24 0 31 -4 26 -12 -6 -10 -4 -10 7 0 7 6 28 12 47 12 24 0 31 -3 26
-12 -6 -10 -4 -10 8 0 21 17 256 15 277 -1 12 -9 13 -9 7 1 -5 8 0 12 13 12
12 0 21 7 21 15 0 8 4 15 10 15 5 0 7 -8 4 -17 -5 -16 -4 -16 8 -3 7 8 22 17
33 18 11 2 25 8 30 13 7 7 4 8 -7 4 -11 -4 -18 -2 -18 4 0 6 7 11 16 11 8 0
13 4 9 9 -3 5 -1 12 4 15 5 3 7 15 4 26 -4 13 1 26 12 34 10 7 15 18 11 24 -4
7 -3 12 1 12 5 0 8 12 7 28 -1 15 -3 55 -3 90 -1 48 -4 62 -16 62 -9 0 -15 10
-15 26 0 17 4 23 13 18 6 -4 5 1 -4 12 -9 10 -14 25 -12 32 3 8 -1 10 -11 6
-11 -4 -16 -1 -16 10 0 9 -7 16 -15 16 -8 0 -15 7 -15 15 0 8 -7 15 -16 15 -8
0 -12 5 -9 11 4 6 -2 13 -14 16 -12 3 -21 12 -21 19 0 9 -11 14 -30 14 -20 0
-30 5 -30 15 0 14 -17 20 -47 16 -7 -1 -13 3 -13 9 0 6 4 9 9 5 5 -3 12 -1 15
3 3 5 -22 9 -54 10 -39 0 -58 -3 -54 -10 4 -5 -5 -3 -18 6 -14 9 -28 13 -31
10 -4 -4 -9 1 -13 10 -8 20 -20 21 -32 0z m-2 -174 c0 -5 -5 -10 -11 -10 -5 0
-7 5 -4 10 3 6 8 10 11 10 2 0 4 -4 4 -10z m80 -18 c48 0 88 -7 98 -17 4 -4 1
-5 -5 -1 -7 4 -13 2 -13 -3 0 -6 5 -12 10 -12 6 -1 15 -2 22 -3 12 -1 20 -27
20 -66 0 -21 1 -22 9 -7 6 9 7 22 3 29 -4 7 -3 8 4 4 7 -4 12 -23 12 -42 0
-24 5 -34 15 -34 11 0 15 -12 15 -50 0 -40 -3 -48 -15 -44 -9 4 -15 0 -15 -10
0 -14 -29 -16 -270 -16 -241 0 -270 2 -270 16 0 9 6 14 13 11 8 -3 14 1 14 9
0 7 -4 11 -8 8 -4 -2 -1 9 7 26 9 17 20 28 25 25 5 -4 10 8 10 24 2 44 3 48
13 58 5 4 6 3 2 -4 -3 -6 -2 -14 4 -18 10 -6 15 15 10 44 -1 13 1 13 15 1 9
-7 15 -9 14 -4 -5 30 3 41 34 43 55 4 57 4 57 14 0 5 -7 7 -15 3 -8 -3 -15 -1
-15 4 0 10 20 14 54 10 13 -1 16 2 10 12 -6 11 -5 11 8 0 23 -18 80 -12 73 8
-4 12 -3 12 8 -1 7 -10 27 -17 47 -17z m-500 -642 c0 -5 -5 -10 -11 -10 -5 0
-7 5 -4 10 3 6 8 10 11 10 2 0 4 -4 4 -10z m500 -98 c0 -4 -9 -8 -20 -9 -11
-1 -20 2 -20 5 0 4 9 8 20 9 11 1 20 -2 20 -5z m150 -142 c0 -5 -2 -10 -4 -10
-3 0 -8 5 -11 10 -3 6 -1 10 4 10 6 0 11 -4 11 -10z"/>
<path d="M4150 7129 c0 -5 5 -7 10 -4 6 3 10 8 10 11 0 2 -4 4 -10 4 -5 0 -10
-5 -10 -11z"/>
<path d="M6450 7129 c0 -4 9 -6 20 -4 11 2 20 0 20 -4 0 -7 -36 -11 -143 -14
-44 -1 -47 -3 -30 -15 13 -10 14 -13 3 -12 -43 6 -80 -1 -80 -15 0 -9 -9 -15
-24 -15 -14 0 -28 -4 -31 -10 -3 -6 1 -7 9 -4 9 3 16 1 16 -5 0 -6 -3 -10 -7
-10 -30 5 -51 -4 -56 -22 -3 -12 -10 -18 -16 -14 -6 3 -11 -1 -11 -9 0 -9 -7
-16 -15 -16 -8 0 -15 -6 -15 -14 0 -8 -7 -16 -15 -20 -8 -3 -15 -17 -15 -31 0
-16 -6 -25 -15 -25 -10 0 -15 -11 -15 -35 0 -19 -5 -35 -11 -35 -5 0 -7 5 -4
10 3 6 1 10 -6 10 -6 0 -9 -8 -6 -20 3 -11 2 -22 -2 -25 -5 -2 -6 -23 -4 -46
3 -27 1 -39 -7 -34 -5 3 -8 10 -5 15 3 5 1 11 -4 14 -5 3 -9 -61 -9 -149 -1
-100 2 -155 9 -155 6 0 7 5 4 10 -3 6 -2 10 3 10 5 0 10 -11 10 -24 0 -16 -5
-23 -13 -19 -15 5 -15 -21 0 -34 4 -4 5 -2 1 5 -4 6 -2 12 3 12 12 0 14 -8 13
-65 0 -26 1 -31 5 -15 6 31 20 47 20 23 -1 -59 4 -83 17 -83 7 0 16 -9 19 -21
3 -12 10 -18 16 -14 6 3 11 1 11 -6 0 -6 8 -18 18 -26 11 -8 12 -12 3 -11 -7
2 -15 -3 -17 -10 -1 -7 0 -9 2 -4 7 14 54 1 54 -14 0 -8 7 -14 15 -14 8 0 15
-7 15 -15 0 -8 7 -16 15 -16 29 -3 33 -4 42 -13 4 -5 3 -6 -4 -2 -6 3 -15 2
-18 -4 -4 -6 -3 -10 2 -9 4 1 27 1 50 0 36 -1 41 -4 36 -18 -6 -16 -5 -17 12
-3 11 9 16 10 11 3 -5 -10 4 -13 34 -13 30 0 39 -3 34 -12 -5 -8 0 -7 11 2 17
14 18 13 12 -2 -6 -16 2 -17 73 -16 60 1 80 5 80 15 0 9 14 13 44 13 30 0 46
5 50 15 7 18 32 20 39 3 4 -10 6 -10 6 0 1 6 9 12 20 12 11 0 21 9 24 21 3 12
10 18 15 15 6 -3 13 0 15 6 4 10 6 10 6 1 1 -7 5 -13 11 -13 5 0 7 7 4 15 -4
9 0 15 10 15 15 0 44 41 35 49 -2 2 4 5 15 7 23 3 59 42 64 68 2 12 5 27 6 34
1 7 8 18 16 25 12 10 12 9 2 -5 -10 -12 -10 -18 -1 -24 7 -4 9 -3 5 4 -3 6 -2
13 3 17 6 3 8 23 5 44 -3 23 -1 42 5 45 7 4 8 1 5 -8 -3 -9 -1 -16 5 -16 6 0
10 3 10 8 -1 4 -1 44 0 90 1 61 4 82 14 82 8 0 13 12 13 30 0 20 -3 27 -11 20
-8 -7 -12 14 -13 72 -3 82 -7 102 -21 94 -4 -3 -7 12 -8 32 -2 54 -8 75 -21
80 -7 2 -12 10 -12 18 0 8 -7 14 -16 14 -8 0 -12 5 -9 10 4 6 12 7 18 4 7 -4
8 -3 4 2 -5 5 -14 9 -20 9 -7 0 -11 9 -9 20 4 20 3 20 -13 0 -9 -11 -14 -15
-12 -10 7 16 -9 50 -24 50 -8 0 -13 8 -11 20 4 20 3 20 -12 0 -9 -11 -16 -15
-15 -10 3 23 -2 36 -11 30 -5 -3 -10 -2 -10 4 0 5 3 11 8 14 4 2 2 3 -4 1 -22
-5 -79 13 -76 24 1 7 -10 12 -27 12 -16 0 -31 6 -34 13 -3 9 -26 15 -68 16
-34 1 -69 6 -78 12 -13 9 -13 9 4 4 11 -3 16 -2 11 2 -10 11 -76 13 -76 2z
m410 -159 c0 -5 -5 -10 -11 -10 -5 0 -7 5 -4 10 3 6 8 10 11 10 2 0 4 -4 4
-10z m-375 -19 c-9 -8 -36 -10 -30 -2 2 4 11 8 20 8 8 0 13 -3 10 -6z m43 -3
c-2 -7 6 -12 17 -12 11 0 26 -9 33 -21 10 -15 12 -16 8 -2 -3 9 -1 17 4 17 6
0 10 -7 10 -15 0 -9 9 -15 25 -15 25 0 65 -31 65 -50 0 -5 7 -10 15 -10 8 0
16 -7 16 -15 3 -29 4 -33 13 -42 5 -4 6 -3 2 4 -3 6 -3 14 2 17 4 2 9 -7 10
-22 1 -14 8 -29 15 -34 13 -8 14 -11 16 -58 1 -20 6 -30 16 -30 13 0 15 -18
14 -109 -1 -98 -3 -109 -17 -104 -13 4 -12 1 3 -10 18 -15 18 -16 3 -17 -13 0
-18 -8 -18 -30 0 -20 -5 -30 -15 -30 -14 0 -20 -17 -16 -47 1 -7 -3 -13 -9
-13 -6 0 -9 4 -5 9 3 5 0 13 -6 17 -7 4 -9 3 -5 -4 3 -6 2 -13 -3 -17 -6 -3
-8 -12 -4 -20 3 -9 -1 -15 -11 -15 -9 0 -16 -7 -16 -15 0 -9 -9 -15 -23 -15
-12 0 -30 -8 -39 -19 -13 -16 -29 -18 -107 -16 -51 1 -94 -1 -96 -5 -2 -4 16
-6 41 -5 24 1 46 0 48 -4 2 -3 -25 -6 -60 -7 -35 0 -64 3 -64 8 0 5 5 6 12 2
7 -4 8 -3 4 4 -4 7 -12 12 -18 12 -6 0 -21 8 -32 18 -15 12 -17 13 -8 1 9 -13
9 -16 -3 -16 -8 0 -15 9 -15 19 0 12 -4 16 -12 12 -7 -5 -9 -2 -6 8 5 11 0 15
-15 14 -15 -1 -23 6 -25 21 -2 15 -8 20 -20 17 -13 -5 -13 -2 3 11 12 11 14
15 5 12 -24 -7 -51 12 -50 36 4 40 0 57 -11 55 -16 -4 -19 20 -20 167 -1 114
1 131 18 143 16 13 16 14 1 9 -10 -4 -18 -2 -18 3 0 6 7 10 15 10 10 0 15 10
15 30 0 21 5 30 16 30 10 0 14 6 10 15 -4 10 1 15 14 15 11 0 20 7 20 15 0 8
7 15 15 15 8 0 15 7 15 15 0 9 9 15 25 15 14 0 33 8 43 18 15 15 31 18 85 16
37 -2 66 0 66 4 -2 12 1 22 6 22 3 0 4 -5 3 -12z m419 -103 c0 -8 -4 -12 -9
-9 -4 3 -8 9 -8 15 0 5 4 9 8 9 5 0 9 -7 9 -15z m-32 -615 c3 -5 1 -10 -4 -10
-6 0 -11 5 -11 10 0 6 2 10 4 10 3 0 8 -4 11 -10z m-350 -40 c3 -5 1 -10 -4
-10 -6 0 -11 5 -11 10 0 6 2 10 4 10 3 0 8 -4 11 -10z"/>
<path d="M6220 6350 c0 -5 5 -10 11 -10 5 0 7 5 4 10 -3 6 -8 10 -11 10 -2 0
-4 -4 -4 -10z"/>
<path d="M10315 7130 c-3 -5 3 -7 15 -5 11 2 22 0 24 -4 5 -8 -6 -9 -111 -12
-54 -1 -73 -5 -73 -15 0 -9 -11 -14 -30 -14 -19 0 -30 -5 -30 -14 0 -8 -16
-15 -41 -19 -47 -6 -50 -8 -52 -35 -1 -17 -4 -19 -16 -9 -12 9 -13 9 -7 0 4
-7 3 -13 -3 -13 -6 0 -7 -8 -4 -17 6 -16 5 -17 -12 -3 -11 9 -16 10 -11 3 4
-8 2 -13 -4 -13 -7 0 -9 -7 -6 -16 5 -13 3 -14 -7 -6 -13 11 -15 5 -19 -45 -1
-7 -5 -13 -9 -13 -4 0 -10 6 -12 13 -3 6 -6 2 -6 -11 -1 -13 -5 -21 -10 -17
-5 3 -13 0 -17 -6 -4 -7 -3 -9 4 -5 6 3 13 2 17 -4 3 -5 -1 -10 -9 -10 -15 0
-21 -27 -17 -72 2 -12 -3 -16 -13 -12 -13 5 -16 -3 -16 -43 0 -27 -6 -55 -12
-62 -11 -11 -10 -12 1 -6 9 5 12 3 9 -6 -3 -8 -11 -13 -17 -11 -7 1 -10 -20
-9 -67 1 -49 5 -68 14 -64 8 3 12 -11 12 -44 0 -26 1 -51 2 -55 2 -5 3 -12 4
-17 0 -5 5 -13 10 -18 5 -4 6 -3 2 4 -3 6 -3 14 2 17 4 2 9 -5 9 -17 1 -12 -3
-25 -10 -29 -9 -6 -9 -8 1 -8 6 0 12 -9 12 -21 0 -14 5 -19 14 -16 9 4 14 -2
14 -16 2 -40 10 -62 21 -60 6 2 11 -6 11 -17 0 -11 5 -20 11 -20 5 0 8 4 4 9
-3 5 -1 13 5 16 6 4 10 3 9 -2 -3 -20 2 -33 13 -30 7 1 12 -5 13 -13 0 -8 5
-15 12 -15 6 0 15 -4 20 -9 4 -5 3 -6 -4 -2 -6 3 -14 2 -18 -4 -3 -5 3 -10 14
-10 12 0 20 -6 18 -12 -1 -8 12 -14 33 -16 19 -2 40 -8 45 -14 7 -8 6 -9 -2
-4 -6 3 -15 2 -18 -4 -4 -6 -3 -10 2 -9 4 1 25 1 46 0 26 -1 37 -6 37 -16 0
-11 12 -15 44 -15 29 0 46 -5 49 -14 5 -11 27 -15 92 -15 72 0 86 2 81 14 -5
14 19 18 116 18 10 0 15 4 12 8 -3 5 -9 7 -14 4 -5 -3 -11 -2 -14 3 -4 7 21
12 71 15 7 0 10 4 7 9 -3 5 -11 5 -17 2 -7 -4 -8 -3 -4 2 9 9 13 10 42 13 8 0
15 8 15 16 0 8 7 15 15 15 11 0 15 12 15 46 0 28 -4 43 -10 39 -6 -4 -7 -12
-4 -18 4 -7 3 -8 -2 -4 -9 9 -10 13 -13 42 -1 12 -11 15 -41 13 -40 -2 -52
-12 -27 -21 6 -3 -3 -6 -20 -6 -24 -1 -33 -6 -33 -18 0 -16 -1 -16 -12 0 -12
16 -40 18 -54 4 -4 -3 5 -4 20 -1 14 2 26 1 26 -4 0 -5 -16 -9 -35 -9 -19 0
-32 4 -29 9 6 10 5 10 -68 12 -31 2 -55 -1 -52 -5 2 -5 11 -6 19 -2 8 3 15 1
15 -4 0 -5 -13 -9 -29 -8 -16 0 -27 3 -24 7 2 5 -1 9 -6 9 -6 1 -15 3 -21 4
-5 1 -26 3 -45 4 -19 0 -35 6 -35 12 0 5 5 7 12 3 7 -4 8 -3 4 4 -4 7 -14 12
-22 12 -9 0 -12 -5 -8 -12 4 -7 3 -8 -4 -4 -7 4 -12 15 -12 25 0 11 -9 21 -21
24 -12 3 -18 10 -14 16 3 7 -2 11 -14 11 -14 0 -19 5 -15 15 4 9 0 15 -9 15
-16 0 -30 26 -22 40 3 5 0 12 -6 16 -8 5 -9 3 -4 -6 5 -9 4 -11 -3 -6 -7 4
-12 18 -12 32 0 14 -7 27 -15 30 -8 4 -15 14 -15 24 0 18 17 19 313 21 171 1
322 1 335 1 12 0 22 4 22 8 0 5 -14 7 -31 5 -18 -3 -29 -2 -26 2 4 3 20 7 36
9 45 5 73 39 73 85 -1 26 4 39 13 39 10 0 14 20 17 76 3 83 -6 129 -22 104 -8
-13 -10 -13 -10 2 0 9 6 19 13 21 10 4 10 6 0 6 -8 1 -13 16 -13 41 0 27 -5
43 -15 46 -8 4 -15 12 -15 20 0 8 -7 14 -15 14 -8 0 -15 7 -15 15 0 8 -7 15
-15 15 -8 0 -15 7 -15 15 0 8 -6 15 -14 15 -7 0 -16 9 -19 20 -3 13 -11 18
-20 14 -8 -3 -21 2 -30 10 -8 9 -24 17 -35 19 -11 2 -26 8 -34 13 -7 6 -35 12
-62 13 -52 2 -69 8 -62 19 2 4 -9 8 -25 9 -15 1 -31 -2 -34 -7z m-245 -98 c0
-4 -10 -9 -22 -9 -18 -2 -20 0 -8 7 18 12 30 13 30 2z m298 -83 c-2 -6 9 -13
24 -16 23 -3 27 -1 21 14 -5 17 -5 17 8 0 8 -9 28 -18 46 -20 17 -1 31 -4 31
-7 -1 -19 4 -30 13 -27 6 1 13 -9 15 -23 3 -13 11 -28 19 -33 10 -5 15 -24 15
-52 0 -35 3 -43 15 -39 11 5 15 -1 15 -24 0 -32 -15 -51 -23 -30 -3 7 -6 3 -6
-9 l-1 -23 -270 0 -270 0 2 29 c1 16 6 27 10 25 5 -3 5 -10 2 -16 -4 -7 -2 -8
4 -4 7 4 12 25 12 47 0 28 4 39 15 39 8 0 15 6 15 14 0 8 7 16 15 20 8 3 15 9
14 13 -5 28 2 45 16 39 13 -5 20 5 16 27 -1 6 58 12 82 8 5 -1 6 3 2 9 -3 6
-12 7 -18 4 -9 -5 -9 -4 -1 5 6 7 41 12 82 13 39 1 71 4 70 7 -1 12 2 21 7 21
3 0 4 -5 3 -11z m42 -759 c0 -5 -4 -10 -10 -10 -5 0 -10 5 -10 10 0 6 5 10 10
10 6 0 10 -4 10 -10z m-360 -80 c0 -5 -5 -10 -11 -10 -5 0 -7 5 -4 10 3 6 8
10 11 10 2 0 4 -4 4 -10z"/>
<path d="M10460 6910 c8 -5 20 -10 25 -10 6 0 3 5 -5 10 -8 5 -19 10 -25 10
-5 0 -3 -5 5 -10z"/>
<path d="M510 6990 c0 -100 -2 -120 -15 -120 -12 0 -15 -18 -15 -99 0 -55 -4
-103 -10 -106 -6 -3 -7 1 -4 9 3 9 1 16 -5 16 -15 0 -14 -43 2 -59 10 -11 10
-13 0 -7 -10 5 -13 -5 -13 -38 0 -30 -4 -46 -13 -46 -20 0 -19 -91 2 -106 14
-11 14 -12 -4 -11 -17 2 -19 -4 -18 -40 1 -23 -3 -45 -9 -49 -8 -5 -9 -2 -5 9
3 10 2 17 -3 17 -5 0 -10 -21 -12 -47 -2 -29 -8 -47 -14 -46 -6 1 -12 -8 -12
-20 -2 -45 -9 -60 -30 -64 -12 -1 -22 1 -22 6 0 6 10 8 21 6 12 -3 19 -1 15 3
-4 3 -22 7 -40 7 l-34 1 -1 -193 -2 -193 90 0 91 0 0 104 0 105 315 1 315 0 1
-42 c1 -24 1 -64 1 -90 -1 -36 2 -48 13 -48 8 0 14 -6 12 -12 -1 -10 23 -14
91 -16 l92 -3 0 181 c0 176 0 180 -21 180 -13 0 -19 5 -16 13 4 10 -8 13 -50
12 -38 -2 -51 1 -44 8 14 14 14 27 0 27 -5 0 -7 -4 -4 -10 3 -5 2 -10 -3 -10
-4 0 -8 18 -8 40 0 22 5 40 11 40 6 0 11 27 12 70 0 39 -3 70 -8 70 -4 0 -6
-13 -4 -30 2 -16 1 -31 -3 -34 -4 -2 -7 15 -8 39 0 27 4 41 11 39 6 -3 11 7
11 21 0 14 -5 24 -10 22 -6 -3 -12 6 -12 19 -1 15 4 24 13 24 8 0 11 5 8 10
-4 6 -11 7 -17 4 -7 -4 -8 -2 -4 5 4 6 11 9 15 7 4 -3 7 42 8 100 0 57 -3 104
-8 104 -5 0 -6 -7 -3 -15 4 -8 2 -15 -3 -15 -5 0 -9 9 -10 20 -1 11 4 20 11
20 8 0 12 15 12 40 0 24 -5 39 -11 36 -6 -2 -10 13 -11 39 0 27 4 41 11 39 6
-3 11 7 11 21 0 14 -5 24 -11 22 -5 -3 -11 6 -11 19 -1 15 4 24 13 24 8 0 11
5 8 10 -4 6 -11 7 -17 4 -7 -4 -8 -2 -4 5 4 6 11 9 16 6 5 -3 8 3 7 14 -1 16
-4 18 -16 8 -12 -9 -13 -9 -7 1 4 6 3 12 -3 12 -6 0 -8 6 -5 13 4 10 -20 13
-106 14 -80 1 -108 -2 -103 -10 5 -9 2 -8 -8 0 -20 16 -241 15 -232 -1 5 -8 3
-8 -8 0 -20 16 -81 16 -73 1 5 -8 3 -8 -7 1 -7 6 -30 12 -51 12 l-38 0 0 -120z
m453 -73 c-2 -4 1 -15 8 -23 9 -11 9 -18 1 -26 -7 -7 -12 -19 -12 -27 0 -11 4
-10 16 5 15 17 15 17 0 -8 -21 -35 -21 -58 0 -32 15 17 15 17 0 -8 -18 -30
-22 -93 -6 -83 6 4 5 -5 -2 -19 -8 -20 -8 -32 0 -52 7 -14 8 -23 3 -20 -12 8
-11 -84 1 -108 7 -12 7 -16 0 -12 -13 8 -13 -82 0 -108 7 -12 7 -16 0 -12 -13
8 -13 -82 0 -108 8 -14 7 -17 -3 -11 -9 6 -11 1 -6 -23 7 -34 0 -39 -55 -37
-20 1 -35 -2 -33 -5 2 -4 22 -6 44 -5 22 1 38 -1 36 -5 -7 -12 -94 -8 -98 4
-5 12 -180 16 -191 5 -3 -3 14 -5 39 -4 25 1 47 0 49 -4 2 -3 -27 -7 -65 -7
-38 -1 -69 2 -69 7 0 5 8 6 18 2 9 -3 14 -3 10 1 -10 11 -78 15 -72 4 3 -4 9
-6 14 -3 5 3 11 2 14 -3 2 -4 -6 -8 -18 -8 -21 0 -22 4 -18 41 2 22 10 43 16
47 7 4 13 31 15 59 1 35 8 57 19 66 16 12 16 13 0 7 -10 -3 -18 -1 -18 5 0 6
7 11 15 11 11 0 15 9 13 30 -1 17 -6 30 -10 30 -4 0 -8 5 -8 11 0 5 5 7 10 4
6 -3 10 3 10 15 0 12 5 18 10 15 12 -7 12 -7 14 66 1 43 -1 56 -11 52 -7 -3
-13 0 -13 6 0 6 7 11 15 11 9 0 15 10 15 26 0 17 4 23 13 18 10 -6 10 -4 0 7
-7 7 -13 19 -13 27 0 8 5 10 13 6 9 -6 9 -4 1 7 -17 21 -16 149 0 149 8 0 16
6 19 13 4 10 38 13 140 13 74 -1 133 -4 130 -9z m192 -106 c3 -5 2 -12 -3 -15
-5 -3 -9 1 -9 9 0 17 3 19 12 6z m-172 -46 c-3 -9 -8 -14 -10 -11 -3 3 -2 9 2
15 9 16 15 13 8 -4z m173 -80 c1 -14 -2 -25 -6 -25 -6 0 -7 36 -1 48 4 7 6 -1
7 -23z m-166 -15 c0 -5 -4 -10 -10 -10 -5 0 -10 5 -10 10 0 6 5 10 10 10 6 0
10 -4 10 -10z m165 -60 c-1 -11 -4 -22 -7 -25 -4 -5 -4 34 1 43 4 8 7 -1 6
-18z m-170 -60 c3 -5 1 -10 -4 -10 -6 0 -11 5 -11 10 0 6 2 10 4 10 3 0 8 -4
11 -10z m-542 -35 c-3 -9 -8 -14 -10 -11 -3 3 -2 9 2 15 9 16 15 13 8 -4z
m542 -85 c3 -5 1 -10 -4 -10 -6 0 -11 5 -11 10 0 6 2 10 4 10 3 0 8 -4 11 -10z
m170 -99 c3 -5 2 -12 -3 -15 -5 -3 -9 1 -9 9 0 17 3 19 12 6z m-170 -21 c3 -5
1 -10 -4 -10 -6 0 -11 5 -11 10 0 6 2 10 4 10 3 0 8 -4 11 -10z m-400 -20 c3
-5 1 -10 -4 -10 -6 0 -11 5 -11 10 0 6 2 10 4 10 3 0 8 -4 11 -10z m245 -98
c0 -4 -9 -8 -20 -9 -11 -1 -20 2 -20 5 0 4 9 8 20 9 11 1 20 -2 20 -5z m365
-2 c-3 -5 -12 -10 -18 -10 -7 0 -6 4 3 10 19 12 23 12 15 0z"/>
<path d="M700 6908 c0 -4 7 -8 15 -8 8 0 15 4 15 8 0 5 -7 9 -15 9 -8 0 -15
-4 -15 -9z"/>
<path d="M746 6912 c-3 -5 1 -9 9 -9 8 0 15 4 15 9 0 4 -4 8 -9 8 -6 0 -12 -4
-15 -8z"/>
<path d="M786 6912 c-3 -5 1 -9 9 -9 8 0 12 4 9 9 -3 4 -7 8 -9 8 -2 0 -6 -4
-9 -8z"/>
<path d="M876 6912 c-3 -5 1 -9 9 -9 8 0 12 4 9 9 -3 4 -7 8 -9 8 -2 0 -6 -4
-9 -8z"/>
<path d="M670 6879 c0 -5 5 -7 10 -4 6 3 10 8 10 11 0 2 -4 4 -10 4 -5 0 -10
-5 -10 -11z"/>
<path d="M2621 7093 c10 -11 10 -14 2 -9 -10 6 -13 -77 -14 -401 0 -224 -1
-429 -2 -455 -2 -38 2 -48 16 -52 10 -2 17 -8 16 -13 -4 -25 3 -43 18 -43 15
0 14 -2 -3 -16 -10 -8 -13 -12 -6 -9 8 4 19 -1 27 -11 15 -21 16 -21 76 -23
35 -1 40 -3 30 -15 -10 -12 15 -15 178 -16 166 -1 191 1 191 15 0 12 14 15 68
16 37 1 71 1 75 0 5 -1 6 3 2 9 -3 6 -10 8 -15 5 -5 -3 -11 -1 -15 4 -3 6 3 8
15 6 11 -2 22 1 25 6 4 5 11 7 16 4 5 -4 9 1 9 9 0 9 7 16 15 16 8 0 15 5 15
10 0 6 5 10 11 10 5 0 7 -5 3 -12 -4 -7 -3 -8 5 -4 6 4 9 12 6 17 -4 5 -2 9 4
9 6 0 8 7 5 15 -4 9 0 15 10 15 19 0 21 16 4 23 -10 4 -10 6 0 6 6 1 12 8 12
16 0 8 6 15 14 15 12 0 14 21 14 105 0 74 -3 104 -11 102 -7 -1 -13 13 -15 32
-3 24 -6 30 -12 21 -6 -10 -10 -7 -15 13 -5 18 -14 27 -27 27 -14 0 -18 5 -14
15 3 9 1 15 -7 14 -35 -4 -47 2 -47 25 0 14 4 28 10 31 6 3 7 -1 4 -9 -3 -9
-3 -16 0 -16 4 0 12 13 17 30 6 16 14 28 19 25 4 -3 14 3 21 12 12 14 12 16
-1 9 -8 -4 -7 -1 4 8 16 13 18 28 17 123 -2 132 -2 133 -12 127 -5 -2 -6 -12
-3 -22 5 -16 5 -16 -6 0 -6 10 -12 31 -13 48 -1 19 -6 28 -14 25 -8 -2 -13 4
-13 15 0 13 -7 20 -20 20 -11 0 -19 5 -18 12 3 12 -3 14 -42 17 -12 0 -20 8
-21 19 0 14 -2 14 -9 -3 -7 -17 -9 -17 -9 -2 -1 14 -11 17 -61 17 -45 0 -62 4
-70 18 -11 16 -11 16 -6 0 3 -10 1 -18 -4 -18 -6 0 -10 6 -10 13 0 11 -38 14
-190 14 -139 1 -188 -2 -183 -11 3 -6 0 -6 -8 2 -7 6 -26 12 -42 12 -26 0 -28
-2 -16 -17z m474 -174 c3 -4 -8 -5 -24 -4 -17 1 -29 -1 -26 -5 8 -12 56 -5 67
10 8 12 9 12 4 -2 -3 -12 0 -18 10 -18 22 0 53 -32 57 -60 2 -13 9 -26 15 -28
18 -6 15 -62 -3 -62 -13 0 -20 -24 -16 -55 1 -5 -6 -1 -14 9 -13 17 -15 18
-15 3 0 -12 -8 -17 -30 -17 -20 0 -30 -5 -30 -15 0 -13 -23 -15 -150 -15
l-150 0 0 128 c0 71 2 131 5 133 7 7 292 5 300 -2z m115 -89 c0 -5 -5 -10 -11
-10 -5 0 -7 5 -4 10 3 6 8 10 11 10 2 0 4 -4 4 -10z m-97 -338 c-2 -8 10 -12
32 -12 24 0 35 -5 35 -15 0 -8 7 -15 15 -15 8 0 15 -7 15 -15 0 -8 6 -15 13
-15 8 0 14 -6 15 -12 1 -25 11 -61 18 -67 4 -3 4 2 1 12 -4 9 -2 17 3 17 6 0
10 -11 10 -24 0 -20 -4 -23 -22 -20 -13 2 -18 2 -11 -1 14 -8 0 -61 -16 -57
-6 1 -11 -5 -11 -13 0 -8 -9 -15 -21 -15 -11 0 -18 -4 -14 -9 3 -5 0 -13 -6
-17 -7 -4 -9 -3 -5 4 3 6 2 13 -4 17 -5 3 -10 -1 -10 -10 0 -11 -9 -16 -32
-15 -52 0 -106 -5 -113 -11 -3 -4 15 -5 40 -4 25 2 45 0 45 -4 0 -4 -31 -7
-70 -7 -38 0 -70 4 -70 9 0 4 10 5 23 1 12 -3 18 -3 14 2 -5 5 -36 9 -70 10
-99 2 -100 3 -93 19 3 9 -3 24 -14 35 -17 17 -20 34 -20 126 0 67 4 103 10 99
6 -3 10 -2 10 4 0 5 -5 11 -12 13 -6 2 63 4 153 3 122 -1 163 -4 162 -13z
m-413 -412 c0 -5 -2 -10 -4 -10 -3 0 -8 5 -11 10 -3 6 -1 10 4 10 6 0 11 -4
11 -10z"/>
<path d="M2865 6910 c-3 -5 -2 -10 4 -10 5 0 13 5 16 10 3 6 2 10 -4 10 -5 0
-13 -4 -16 -10z"/>
<path d="M2906 6912 c-3 -5 1 -9 9 -9 8 0 12 4 9 9 -3 4 -7 8 -9 8 -2 0 -6 -4
-9 -8z"/>
<path d="M2996 6912 c-3 -5 1 -9 9 -9 8 0 12 4 9 9 -3 4 -7 8 -9 8 -2 0 -6 -4
-9 -8z"/>
<path d="M2826 6491 c3 -3 23 -6 45 -7 21 0 37 2 34 5 -3 3 -23 5 -45 6 -22 1
-37 -1 -34 -4z"/>
<path d="M2930 6486 c7 -7 13 -7 20 0 6 6 3 10 -10 10 -13 0 -16 -4 -10 -10z"/>
<path d="M3024 6493 c4 -4 16 -8 28 -10 28 -4 18 6 -12 12 -12 2 -20 1 -16 -2z"/>
<path d="M3086 6488 c3 -5 10 -6 15 -3 13 9 11 12 -6 12 -8 0 -12 -4 -9 -9z"/>
<path d="M4950 7097 c0 -5 -6 -7 -13 -4 -9 3 -13 -4 -12 -23 0 -20 4 -26 15
-22 11 4 9 -1 -4 -17 -13 -14 -15 -20 -5 -16 11 4 14 -7 16 -57 2 -47 0 -59
-8 -45 -5 9 -8 21 -5 25 2 4 1 14 -3 21 -5 8 -8 -5 -7 -32 1 -35 4 -43 16 -39
11 4 9 -1 -4 -17 -14 -15 -15 -20 -5 -16 10 4 15 -2 17 -20 1 -16 -2 -24 -8
-20 -6 4 -7 12 -4 18 4 7 3 9 -1 5 -14 -13 -15 -59 -1 -64 17 -7 15 -42 -3
-53 -10 -7 -13 -36 -12 -125 1 -97 -2 -116 -14 -116 -12 0 -15 -17 -15 -90 0
-73 -3 -90 -15 -90 -10 0 -15 -11 -16 -37 -1 -21 -1 -42 0 -46 1 -5 -3 -6 -9
-2 -6 3 -8 11 -5 16 4 5 1 9 -4 9 -6 0 -11 -9 -11 -20 0 -14 -5 -18 -17 -13
-15 6 -16 4 -6 -8 11 -14 5 -16 -48 -18 -49 -2 -60 1 -56 12 3 7 -1 14 -8 14
-7 0 -11 -6 -8 -12 2 -7 -4 -12 -14 -12 -39 0 -53 -3 -53 -13 0 -5 8 -7 18 -4
16 5 16 5 -1 -6 -12 -8 -17 -23 -15 -55 1 -39 3 -42 15 -27 12 16 13 16 7 0
-5 -14 -1 -18 15 -18 12 0 21 -6 21 -15 0 -14 37 -21 80 -15 11 1 10 -2 -3
-12 -16 -12 -12 -14 42 -15 46 -1 61 2 61 13 0 12 47 21 83 15 4 0 7 6 7 14 0
13 25 21 53 16 4 0 7 4 7 10 0 6 -8 8 -17 5 -17 -6 -17 -5 0 8 9 7 17 17 17
21 0 4 7 13 16 20 11 8 17 29 18 61 2 32 6 48 14 47 11 -3 17 31 12 66 -1 9 4
12 17 7 17 -6 17 -5 1 8 -22 16 -23 46 -2 46 8 0 12 5 9 10 -4 6 -11 7 -17 4
-7 -4 -8 -2 -4 5 4 6 12 9 17 6 5 -4 9 43 9 115 0 98 3 122 15 126 12 5 15 32
15 153 l0 146 208 0 c160 1 206 -2 198 -11 -6 -7 -15 -9 -21 -6 -17 10 -36 11
-29 1 3 -5 9 -7 14 -4 5 3 12 1 15 -5 5 -8 11 -8 20 0 10 9 13 -68 14 -427 0
-248 5 -439 10 -442 5 -3 45 -5 90 -3 l81 4 0 524 c0 567 3 531 -47 525 -7 -1
-13 3 -13 9 0 6 4 9 9 5 5 -3 12 -2 15 3 3 5 -80 9 -185 9 -141 1 -187 -2
-182 -10 5 -9 3 -9 -8 0 -20 16 -241 15 -232 -1 4 -6 0 -5 -9 2 -18 15 -128
14 -128 -1z m0 -27 c0 -5 -2 -10 -4 -10 -3 0 -8 5 -11 10 -3 6 -1 10 4 10 6 0
11 -4 11 -10z m0 -280 c0 -5 -4 -10 -10 -10 -5 0 -10 5 -10 10 0 6 5 10 10 10
6 0 10 -4 10 -10z m85 -640 c-3 -5 -12 -10 -18 -10 -7 0 -6 4 3 10 19 12 23
12 15 0z m-385 -14 c0 -3 -4 -8 -10 -11 -5 -3 -10 -1 -10 4 0 6 5 11 10 11 6
0 10 -2 10 -4z"/>
<path d="M7260 7069 c0 -22 -4 -38 -9 -34 -5 3 -13 1 -16 -5 -4 -6 -1 -9 6 -8
10 2 14 -28 14 -134 1 -123 0 -136 -14 -125 -14 11 -14 10 -1 -7 12 -15 15
-56 16 -212 0 -174 -1 -192 -15 -181 -14 11 -14 10 -1 -7 10 -13 15 -44 16
-93 1 -66 0 -72 -15 -61 -15 12 -15 11 -1 -6 9 -11 16 -42 16 -75 2 -86 3 -93
14 -86 6 4 7 11 4 17 -4 7 -2 8 5 4 6 -4 9 -12 6 -17 -4 -5 27 -9 74 -9 l80 0
-1 270 c0 201 -3 268 -12 263 -7 -4 -6 -1 2 9 17 21 16 241 -1 231 -8 -5 -8
-2 0 8 7 8 12 30 12 49 0 70 -19 65 243 66 189 0 238 -2 234 -13 -3 -7 -2 -14
2 -17 4 -2 6 -28 5 -56 -3 -39 0 -50 9 -44 10 6 10 5 2 -7 -8 -10 -12 -114
-12 -356 0 -281 3 -343 14 -347 8 -3 14 -17 14 -31 0 -25 0 -25 90 -25 l90 0
0 360 c1 747 3 690 -15 690 -8 0 -15 6 -15 13 0 9 -20 13 -70 14 -49 0 -68 -3
-63 -11 5 -7 2 -7 -8 1 -20 16 -241 15 -232 -1 4 -7 2 -7 -8 1 -19 16 -241 15
-232 -1 5 -7 2 -7 -8 1 -9 7 -53 11 -117 11 l-102 0 0 -39z m825 21 c3 -5 1
-10 -4 -10 -6 0 -11 5 -11 10 0 6 2 10 4 10 3 0 8 -4 11 -10z"/>
<path d="M8580 7096 c0 -11 -9 -16 -28 -16 -16 0 -29 -6 -30 -12 -1 -7 -3 -33
-5 -58 -6 -63 -6 -62 -17 -55 -6 4 -10 3 -9 -2 1 -4 1 -52 0 -105 -1 -73 -4
-97 -13 -95 -10 1 -14 -25 -16 -98 -1 -55 -7 -104 -13 -110 -7 -7 -8 -4 -4 8
4 9 3 17 -2 17 -14 0 -14 -53 -1 -62 10 -6 10 -8 1 -8 -9 0 -13 -19 -13 -61 0
-48 -3 -60 -14 -56 -15 6 -16 -17 -1 -30 4 -5 5 -1 0 7 -5 9 -5 12 1 7 14 -13
12 -109 -2 -103 -7 3 -10 -5 -9 -19 5 -37 -11 -90 -24 -87 -7 1 -10 -2 -6 -8
3 -6 11 -8 16 -5 5 4 9 -8 9 -25 0 -17 -4 -29 -9 -25 -5 3 -13 0 -17 -6 -4 -8
-3 -9 5 -5 11 7 33 -32 25 -45 -1 -3 37 -6 87 -8 l89 -2 0 60 c0 48 3 61 15
61 14 0 19 65 18 233 0 20 3 37 7 37 5 0 7 -13 5 -30 -2 -16 0 -32 4 -34 4 -3
8 30 8 72 1 119 2 124 16 116 9 -6 8 -3 -1 8 -15 18 -13 59 3 70 6 5 5 8 -3 8
-7 0 -10 5 -7 10 4 6 11 7 17 4 7 -4 8 -2 4 5 -4 6 -12 9 -17 6 -5 -4 -9 7 -9
24 0 16 4 32 9 35 5 4 7 -4 4 -16 -4 -16 -3 -20 5 -13 6 6 12 29 13 53 2 28 7
42 17 42 8 0 12 -6 9 -13 -3 -8 6 -27 19 -42 13 -15 21 -32 17 -38 -4 -6 0 -8
8 -5 10 4 15 -2 17 -20 1 -13 10 -31 20 -39 9 -8 11 -12 5 -8 -7 3 -13 2 -13
-4 0 -5 10 -11 23 -13 15 -2 22 -10 23 -25 1 -13 2 -24 4 -25 1 -2 3 -11 5
-21 2 -11 7 -22 11 -25 4 -4 4 1 1 10 -3 10 -2 20 4 23 5 4 9 3 8 -2 -1 -4 -1
-25 0 -45 1 -27 6 -38 16 -38 8 0 15 -9 15 -19 0 -25 28 -53 43 -44 7 4 7 0
-1 -9 -12 -15 -4 -17 87 -16 61 0 104 4 107 10 4 6 2 8 -4 4 -6 -3 -13 -2 -17
4 -4 6 4 10 19 10 14 0 28 4 31 10 3 6 -1 7 -9 4 -9 -3 -16 -1 -16 5 0 6 7 11
15 11 13 0 21 25 16 53 0 4 5 7 12 7 8 0 14 7 15 15 1 8 3 22 4 30 1 8 7 15
15 15 7 0 13 7 13 15 0 8 7 15 15 15 9 0 15 9 15 21 0 16 4 20 18 15 16 -6 16
-5 0 8 -21 15 -24 28 -5 20 8 -3 13 5 15 21 1 13 11 34 22 45 12 12 18 25 15
30 -4 6 1 13 9 16 9 3 16 12 16 20 0 8 8 14 18 14 14 0 15 -2 2 -10 -11 -7
-11 -10 -2 -10 9 0 12 -10 8 -30 -2 -16 -1 -30 3 -30 4 0 6 -29 5 -65 -2 -40
1 -65 7 -65 6 0 8 4 4 9 -3 5 -1 12 4 15 12 8 8 -23 -5 -32 -5 -4 -10 -13 -12
-21 -3 -12 -1 -12 14 0 16 13 16 12 5 -10 -8 -15 -9 -21 -2 -17 11 7 14 -27
11 -131 -1 -43 2 -53 15 -53 13 0 16 -10 15 -52 -4 -120 -1 -138 18 -131 15 6
16 5 2 -12 -9 -11 -10 -16 -2 -11 9 5 12 -3 13 -31 1 -21 1 -43 0 -48 0 -6 7
-11 17 -11 9 -1 22 -2 27 -4 6 -1 38 -2 73 -1 l63 1 -2 105 c-1 90 -3 103 -14
88 -11 -15 -13 -4 -12 76 2 71 -1 95 -11 99 -11 4 -11 6 0 13 10 7 9 9 -4 9
-13 0 -17 7 -16 24 1 13 7 22 13 19 7 -2 12 3 12 11 0 8 -5 12 -11 10 -7 -3
-12 16 -13 53 -1 73 -5 86 -23 95 -12 5 -12 7 3 7 9 1 17 6 17 12 0 5 -5 7
-12 3 -8 -5 -8 -3 -2 7 11 18 13 120 2 113 -5 -3 -5 -10 -2 -16 4 -6 3 -8 -3
-5 -8 5 -13 41 -16 142 -2 29 -6 39 -16 37 -12 -3 -12 -1 0 14 9 12 9 15 2 10
-10 -5 -13 9 -13 58 0 60 -2 66 -21 66 -14 0 -19 5 -16 13 4 11 -11 14 -69 15
-59 1 -74 -2 -74 -13 0 -8 -6 -15 -14 -15 -8 0 -18 -9 -21 -20 -4 -11 -11 -18
-16 -15 -5 4 -9 -10 -9 -30 0 -26 -4 -36 -13 -32 -8 3 -14 -3 -14 -15 -1 -11
-9 -28 -17 -37 -9 -10 -16 -23 -16 -29 0 -6 -6 -9 -12 -7 -8 3 -14 -5 -15 -21
0 -15 -8 -31 -17 -36 -9 -5 -16 -18 -16 -30 0 -11 -8 -27 -17 -35 -10 -8 -13
-12 -6 -9 6 4 15 2 18 -4 4 -6 3 -10 -2 -9 -17 3 -33 -1 -32 -8 3 -20 -2 -26
-11 -13 -8 12 -10 8 -11 -15 -1 -16 0 -37 1 -45 1 -10 -3 -9 -13 5 -15 19 -15
18 -13 -13 1 -17 -2 -32 -7 -32 -4 0 -6 -4 -2 -9 3 -5 0 -13 -6 -17 -7 -4 -9
-3 -5 4 3 6 1 14 -5 18 -7 4 -10 3 -7 -2 8 -13 -9 -54 -22 -54 -5 0 -10 7 -10
15 0 8 -7 15 -15 15 -9 0 -15 9 -15 21 0 16 -4 20 -17 15 -15 -5 -15 -4 1 9
17 13 18 15 3 15 -12 0 -17 8 -17 30 0 20 -5 30 -15 30 -8 0 -15 7 -15 15 0 8
-7 15 -15 15 -8 0 -14 3 -14 8 5 27 -3 52 -16 52 -8 0 -15 5 -15 11 0 5 5 7
11 4 6 -4 5 2 -2 14 -10 14 -15 17 -21 8 -4 -7 -8 -7 -8 -1 0 5 6 16 13 23 10
11 9 13 -1 7 -8 -5 -16 3 -23 23 -6 17 -15 28 -20 25 -5 -3 -9 4 -9 15 0 13
-7 21 -16 21 -10 0 -14 6 -11 15 4 8 2 17 -4 20 -5 4 -7 11 -4 16 4 5 1 17 -5
26 -11 17 -11 17 -6 1 3 -10 1 -18 -4 -18 -6 0 -10 14 -10 30 0 23 -4 30 -20
30 -11 0 -19 5 -17 12 1 8 -17 13 -55 16 -48 3 -58 1 -58 -12z m150 -356 c0
-5 -2 -10 -4 -10 -3 0 -8 5 -11 10 -3 6 -1 10 4 10 6 0 11 -4 11 -10z m823
-55 c-3 -9 -8 -14 -10 -11 -3 3 -2 9 2 15 9 16 15 13 8 -4z m-167 -15 c0 -11
-4 -20 -8 -20 -10 0 -11 24 -1 33 9 9 9 10 9 -13z m1 -45 c0 -8 -4 -15 -9 -15
-10 0 -11 14 -1 23 9 10 10 9 10 -8z m-761 -159 c0 -19 -3 -32 -6 -30 -8 8 -8
64 -1 64 4 0 7 -15 7 -34z m-199 -231 c0 -8 -4 -12 -9 -9 -5 3 -6 10 -3 15 9
13 12 11 12 -6z"/>
<path d="M10508 7103 c7 -3 16 -2 19 1 4 3 -2 6 -13 5 -11 0 -14 -3 -6 -6z"/>
<path d="M11043 7096 c3 -7 -1 -13 -9 -13 -7 0 -10 5 -7 11 4 8 3 8 -6 0 -8
-7 -11 -148 -9 -534 3 -514 3 -523 23 -527 22 -4 147 -4 151 0 2 2 4 108 6
237 l3 235 228 0 c163 0 226 -3 223 -11 -3 -7 5 -10 20 -8 16 1 22 -2 17 -9
-12 -19 -15 -57 -4 -57 5 0 8 11 7 25 -2 13 1 22 5 19 12 -7 5 -47 -9 -52 -7
-2 -12 -8 -12 -14 0 -6 7 -8 15 -4 8 3 15 1 15 -4 0 -6 -7 -10 -15 -10 -8 0
-15 -5 -15 -11 0 -6 8 -8 18 -5 16 6 16 5 0 -8 -22 -16 -23 -30 -3 -22 8 3 15
1 15 -4 0 -6 -7 -10 -16 -10 -8 0 -12 -5 -9 -10 4 -6 11 -7 17 -4 7 4 8 2 4
-5 -4 -6 -11 -9 -16 -6 -5 3 -8 -4 -7 -15 1 -10 7 -22 14 -24 7 -3 10 -12 7
-21 -3 -8 -10 -12 -15 -9 -5 3 -9 -2 -9 -11 0 -12 5 -15 18 -11 16 6 16 5 -1
-8 -15 -12 -15 -14 -2 -19 8 -4 12 -13 9 -22 -3 -8 -10 -12 -15 -9 -5 3 -9 -2
-9 -11 0 -12 5 -15 17 -11 14 6 14 3 -3 -15 -17 -20 -17 -22 -1 -16 9 4 17 2
17 -3 0 -6 -7 -10 -15 -10 -8 0 -15 -5 -15 -11 0 -6 6 -9 14 -6 8 3 16 -2 19
-14 9 -35 177 -21 177 15 0 4 -6 4 -12 0 -10 -6 -10 -4 0 7 18 19 15 66 -5 79
-13 8 -13 10 -3 7 24 -7 26 98 2 113 -12 8 -12 10 -2 7 24 -7 26 98 2 113 -13
9 -13 10 -1 7 23 -7 24 58 1 73 -14 9 -14 11 -1 7 13 -4 16 5 16 56 0 34 -5
65 -10 69 -13 8 -16 59 -4 51 5 -3 7 -14 4 -24 -3 -11 -1 -19 3 -19 13 0 9
174 -4 182 -8 5 -7 8 2 8 7 0 12 13 12 30 0 17 -4 30 -10 30 -5 0 -10 5 -10
11 0 5 5 7 10 4 6 -4 10 8 10 29 0 20 -4 36 -10 36 -5 0 -10 5 -10 11 0 5 5 7
10 4 6 -4 10 8 10 29 0 20 -4 36 -10 36 -5 0 -10 5 -10 11 0 5 5 7 10 4 6 -4
10 5 10 20 0 20 -4 26 -15 21 -10 -3 -15 1 -15 13 0 16 -9 18 -77 18 -43 1
-85 -4 -93 -9 -13 -8 -13 -9 1 -5 11 4 15 -2 15 -23 -1 -16 -4 -31 -7 -35 -4
-3 -5 6 -4 20 2 14 -1 25 -5 25 -5 0 -8 -21 -6 -47 1 -33 6 -47 15 -45 7 1 10
-2 6 -8 -3 -6 -10 -8 -15 -5 -5 3 -8 -7 -6 -22 1 -16 8 -27 15 -25 7 1 10 -2
6 -8 -3 -6 -10 -8 -14 -6 -4 3 -7 -40 -8 -95 -1 -73 2 -99 11 -96 6 3 12 -4
12 -14 0 -14 -3 -15 -14 -7 -7 6 -12 7 -11 2 8 -45 14 -44 -241 -44 l-240 0
-2 223 -3 222 -73 2 c-56 1 -72 -2 -69 -11z m657 -86 c0 -5 -5 -10 -11 -10 -5
0 -7 5 -4 10 3 6 8 10 11 10 2 0 4 -4 4 -10z m0 -60 c0 -5 -5 -10 -11 -10 -5
0 -7 5 -4 10 3 6 8 10 11 10 2 0 4 -4 4 -10z m-3 -69 c0 -11 -5 -18 -9 -15 -4
3 -5 11 -1 19 7 21 12 19 10 -4z m-3 -61 c-6 -6 -10 -3 -10 10 0 13 4 16 10
10 7 -7 7 -13 0 -20z m6 -30 c0 -5 -5 -10 -11 -10 -5 0 -7 5 -4 10 3 6 8 10
11 10 2 0 4 -4 4 -10z m170 -20 c0 -5 -5 -10 -11 -10 -5 0 -7 5 -4 10 3 6 8
10 11 10 2 0 4 -4 4 -10z m-177 -15 c-3 -9 -8 -14 -10 -11 -3 3 -2 9 2 15 9
16 15 13 8 -4z m177 -45 c0 -5 -4 -10 -10 -10 -5 0 -10 5 -10 10 0 6 5 10 10
10 6 0 10 -4 10 -10z m-3 -160 c1 -10 -1 -21 -5 -24 -4 -2 -7 9 -7 25 -1 31 7
30 12 -1z m-2 -99 c3 -5 2 -12 -3 -15 -5 -3 -9 1 -9 9 0 17 3 19 12 6z m2
-101 c1 -10 -1 -21 -5 -24 -4 -2 -7 9 -7 25 -1 31 7 30 12 -1z m0 -120 c1 -10
-1 -21 -5 -24 -4 -2 -7 9 -7 25 -1 31 7 30 12 -1z m0 -120 c1 -10 -1 -21 -5
-24 -4 -2 -7 9 -7 25 -1 31 7 30 12 -1z"/>
<path d="M12096 7098 c3 -5 9 -6 14 -3 4 3 6 -4 3 -16 -4 -16 -8 -17 -14 -7
-7 10 -9 10 -10 -2 -5 -66 -4 -87 3 -102 7 -14 4 -18 -9 -19 -13 0 -11 -3 7
-11 14 -5 100 -11 192 -11 144 -2 165 -4 155 -16 -9 -12 -9 -13 1 -7 14 8 13
40 12 -476 -1 -325 1 -368 15 -368 8 0 15 -7 15 -15 0 -8 8 -15 18 -16 32 -1
127 3 130 6 2 2 4 17 4 34 1 19 5 28 12 24 6 -3 5 0 -1 8 -15 16 -17 33 -3 24
6 -3 10 -2 10 4 0 5 -6 11 -12 14 -10 3 -10 9 0 27 8 12 9 19 3 15 -6 -3 -11
1 -11 10 0 9 5 13 10 10 6 -3 10 -2 10 4 0 5 -6 11 -12 14 -10 3 -10 9 -1 24
9 16 9 23 0 32 -9 9 -8 14 3 21 13 9 13 10 0 11 -10 0 -8 3 5 9 17 7 17 9 3 9
-21 1 -23 12 -5 30 10 11 10 13 0 7 -7 -4 -13 -3 -13 3 0 5 8 12 18 14 16 4
16 5 0 6 -21 1 -23 12 -5 30 10 11 10 13 0 7 -7 -4 -13 -3 -13 3 0 5 8 12 18
14 16 4 16 5 0 6 -21 1 -23 12 -5 30 10 11 10 13 0 7 -7 -4 -13 -3 -13 3 0 5
8 12 18 14 16 4 16 5 0 6 -21 1 -23 12 -5 30 10 11 10 13 0 7 -7 -4 -13 -3
-13 3 0 5 8 12 18 14 16 4 16 5 0 6 -11 1 -18 9 -18 22 0 11 5 17 10 14 6 -3
10 -2 10 4 0 5 -6 11 -12 14 -10 3 -10 9 0 27 8 12 9 19 3 15 -6 -3 -11 1 -11
10 0 9 5 13 10 10 6 -3 10 -2 10 4 0 5 -6 11 -12 14 -10 3 -10 9 -1 24 9 16 9
23 0 32 -9 9 -8 14 3 21 10 7 11 10 3 10 -7 0 -13 4 -13 10 0 5 8 7 18 4 15
-5 15 -4 1 5 -19 12 -25 75 -6 64 7 -4 6 0 -2 10 -12 15 -11 17 10 18 13 1 27
1 32 0 4 0 7 4 7 10 0 6 -7 9 -15 5 -8 -3 -15 -2 -15 3 0 5 66 8 148 7 81 -1
155 0 165 2 14 4 17 16 17 78 0 59 -3 74 -15 74 -8 0 -15 6 -15 14 0 11 -21
14 -100 14 -72 0 -98 -3 -93 -12 5 -7 2 -7 -8 1 -20 16 -241 15 -232 -1 5 -8
2 -7 -8 0 -20 16 -321 16 -312 0 4 -6 0 -5 -9 2 -18 14 -110 14 -102 0z"/>
<path d="M7235 7090 c-3 -5 -1 -10 4 -10 6 0 11 5 11 10 0 6 -2 10 -4 10 -3 0
-8 -4 -11 -10z"/>
<path d="M4365 7070 c-3 -5 -1 -10 4 -10 6 0 11 5 11 10 0 6 -2 10 -4 10 -3 0
-8 -4 -11 -10z"/>
<path d="M7235 7060 c-3 -5 -1 -10 4 -10 6 0 11 5 11 10 0 6 -2 10 -4 10 -3 0
-8 -4 -11 -10z"/>
<path d="M8495 7040 c3 -5 8 -10 11 -10 2 0 4 5 4 10 0 6 -5 10 -11 10 -5 0
-7 -4 -4 -10z"/>
<path d="M12060 7041 c0 -6 4 -13 10 -16 6 -3 7 1 4 9 -7 18 -14 21 -14 7z"/>
<path d="M8490 7009 c0 -5 5 -7 10 -4 6 3 10 8 10 11 0 2 -4 4 -10 4 -5 0 -10
-5 -10 -11z"/>
<path d="M1155 7000 c3 -5 8 -10 11 -10 2 0 4 5 4 10 0 6 -5 10 -11 10 -5 0
-7 -4 -4 -10z"/>
<path d="M7235 6980 c-3 -5 -1 -10 4 -10 6 0 11 5 11 10 0 6 -2 10 -4 10 -3 0
-8 -4 -11 -10z"/>
<path d="M1153 6900 c-1 -11 2 -22 6 -24 3 -3 8 6 9 20 1 13 -2 24 -6 24 -4 0
-8 -9 -9 -20z"/>
<path d="M5316 6912 c-3 -5 1 -9 9 -9 8 0 12 4 9 9 -3 4 -7 8 -9 8 -2 0 -6 -4
-9 -8z"/>
<path d="M5375 6909 c-3 -4 2 -6 10 -5 21 3 28 13 10 13 -9 0 -18 -4 -20 -8z"/>
<path d="M5426 6912 c-3 -5 1 -9 9 -9 8 0 12 4 9 9 -3 4 -7 8 -9 8 -2 0 -6 -4
-9 -8z"/>
<path d="M7556 6912 c-3 -5 1 -9 9 -9 8 0 12 4 9 9 -3 4 -7 8 -9 8 -2 0 -6 -4
-9 -8z"/>
<path d="M7615 6909 c-3 -4 2 -6 10 -5 21 3 28 13 10 13 -9 0 -18 -4 -20 -8z"/>
<path d="M7666 6912 c-3 -5 1 -9 9 -9 8 0 15 4 15 9 0 4 -4 8 -9 8 -6 0 -12
-4 -15 -8z"/>
<path d="M7706 6912 c-3 -5 1 -9 9 -9 8 0 15 4 15 9 0 4 -4 8 -9 8 -6 0 -12
-4 -15 -8z"/>
<path d="M7746 6912 c-3 -5 1 -9 9 -9 8 0 15 4 15 9 0 4 -4 8 -9 8 -6 0 -12
-4 -15 -8z"/>
<path d="M7786 6912 c-3 -5 1 -9 9 -9 8 0 15 4 15 9 0 4 -4 8 -9 8 -6 0 -12
-4 -15 -8z"/>
<path d="M7826 6912 c-3 -5 1 -9 9 -9 8 0 12 4 9 9 -3 4 -7 8 -9 8 -2 0 -6 -4
-9 -8z"/>
<path d="M12186 6912 c-3 -5 1 -9 9 -9 8 0 15 4 15 9 0 4 -4 8 -9 8 -6 0 -12
-4 -15 -8z"/>
<path d="M12226 6912 c-3 -5 1 -9 9 -9 8 0 15 4 15 9 0 4 -4 8 -9 8 -6 0 -12
-4 -15 -8z"/>
<path d="M12266 6912 c-3 -5 1 -9 9 -9 8 0 15 4 15 9 0 4 -4 8 -9 8 -6 0 -12
-4 -15 -8z"/>
<path d="M12306 6912 c-3 -5 1 -9 9 -9 8 0 12 4 9 9 -3 4 -7 8 -9 8 -2 0 -6
-4 -9 -8z"/>
<path d="M12396 6912 c-3 -5 1 -9 9 -9 8 0 12 4 9 9 -3 4 -7 8 -9 8 -2 0 -6
-4 -9 -8z"/>
<path d="M12706 6912 c-3 -5 1 -9 9 -9 8 0 15 4 15 9 0 4 -4 8 -9 8 -6 0 -12
-4 -15 -8z"/>
<path d="M12746 6912 c-3 -5 1 -9 9 -9 8 0 15 4 15 9 0 4 -4 8 -9 8 -6 0 -12
-4 -15 -8z"/>
<path d="M12786 6912 c-3 -5 1 -9 9 -9 8 0 12 4 9 9 -3 4 -7 8 -9 8 -2 0 -6
-4 -9 -8z"/>
<path d="M12876 6912 c-3 -5 1 -9 9 -9 8 0 12 4 9 9 -3 4 -7 8 -9 8 -2 0 -6
-4 -9 -8z"/>
<path d="M7233 6825 c0 -8 4 -12 9 -9 5 3 6 10 3 15 -9 13 -12 11 -12 -6z"/>
<path d="M7235 6790 c3 -5 8 -10 11 -10 2 0 4 5 4 10 0 6 -5 10 -11 10 -5 0
-7 -4 -4 -10z"/>
<path d="M1440 6750 c0 -5 5 -10 11 -10 5 0 7 5 4 10 -3 6 -8 10 -11 10 -2 0
-4 -4 -4 -10z"/>
<path d="M4920 6750 c0 -5 5 -10 11 -10 5 0 7 5 4 10 -3 6 -8 10 -11 10 -2 0
-4 -4 -4 -10z"/>
<path d="M5970 6750 c0 -5 5 -10 11 -10 5 0 7 5 4 10 -3 6 -8 10 -11 10 -2 0
-4 -4 -4 -10z"/>
<path d="M9321 6741 c-7 -5 -9 -11 -5 -14 5 -3 15 1 22 9 14 16 5 18 -17 5z"/>
<path d="M7236 6677 c3 -10 9 -15 12 -12 3 3 0 11 -7 18 -10 9 -11 8 -5 -6z"/>
<path d="M5110 6609 c0 -5 5 -7 10 -4 6 3 10 8 10 11 0 2 -4 4 -10 4 -5 0 -10
-5 -10 -11z"/>
<path d="M10750 6610 c0 -5 5 -10 11 -10 5 0 7 5 4 10 -3 6 -8 10 -11 10 -2 0
-4 -4 -4 -10z"/>
<path d="M4552 6590 c0 -14 2 -19 5 -12 2 6 2 18 0 25 -3 6 -5 1 -5 -13z"/>
<path d="M3600 6591 c0 -6 4 -13 10 -16 6 -3 7 1 4 9 -7 18 -14 21 -14 7z"/>
<path d="M7233 6585 c0 -8 4 -15 9 -15 4 0 8 4 8 9 0 6 -4 12 -8 15 -5 3 -9
-1 -9 -9z"/>
<path d="M9580 6551 c0 -6 4 -12 8 -15 5 -3 9 1 9 9 0 8 -4 15 -9 15 -4 0 -8
-4 -8 -9z"/>
<path d="M1155 6520 c3 -5 8 -10 11 -10 2 0 4 5 4 10 0 6 -5 10 -11 10 -5 0
-7 -4 -4 -10z"/>
<path d="M7235 6500 c-3 -5 -1 -10 4 -10 6 0 11 5 11 10 0 6 -2 10 -4 10 -3 0
-8 -4 -11 -10z"/>
<path d="M11206 6489 c2 -4 13 -7 24 -6 10 1 17 4 14 8 -2 4 -13 7 -24 6 -10
-1 -17 -4 -14 -8z"/>
<path d="M11467 6489 c7 -7 15 -10 18 -7 3 3 -2 9 -12 12 -14 6 -15 5 -6 -5z"/>
<path d="M11504 6493 c4 -4 16 -8 28 -10 28 -4 18 6 -12 12 -12 2 -20 1 -16
-2z"/>
<path d="M11570 6486 c7 -7 13 -7 20 0 6 6 3 10 -10 10 -13 0 -16 -4 -10 -10z"/>
<path d="M7235 6390 c3 -5 8 -10 11 -10 2 0 4 5 4 10 0 6 -5 10 -11 10 -5 0
-7 -4 -4 -10z"/>
<path d="M8404 6315 c2 -35 11 -39 12 -4 1 16 -2 29 -6 29 -4 0 -6 -11 -6 -25z"/>
<path d="M1154 6270 c0 -11 4 -20 8 -20 4 0 8 9 8 20 0 11 -4 20 -8 20 -4 0
-8 -9 -8 -20z"/>
<path d="M7234 6270 c0 -13 4 -16 10 -10 7 7 7 13 0 20 -6 6 -10 3 -10 -10z"/>
<path d="M7235 6230 c3 -5 8 -10 11 -10 2 0 4 5 4 10 0 6 -5 10 -11 10 -5 0
-7 -4 -4 -10z"/>
<path d="M5054 6205 c0 -14 4 -25 8 -25 4 0 7 9 5 20 -5 29 -13 33 -13 5z"/>
<path d="M4655 6200 c3 -5 8 -10 11 -10 2 0 4 5 4 10 0 6 -5 10 -11 10 -5 0
-7 -4 -4 -10z"/>
<path d="M7236 6117 c3 -10 9 -15 12 -12 3 3 0 11 -7 18 -10 9 -11 8 -5 -6z"/>
<path d="M7233 6075 c0 -8 4 -12 9 -9 5 3 6 10 3 15 -9 13 -12 11 -12 -6z"/>
</g>
</svg>
